<svg width="128" height="139" viewBox="0 0 128 139" fill="none" xmlns="http://www.w3.org/2000/svg">
<g clip-path="url(#clip0_23_1883)">
<path d="M53.7795 80.391C53.7795 86.026 58.3613 90.6106 63.9931 90.6106C77.5427 90.0494 77.5387 70.7309 63.9931 70.1717C58.3613 70.1714 53.7795 74.7559 53.7795 80.391ZM70.4535 80.391C70.4535 83.9567 67.5553 86.8577 63.9928 86.8577C55.422 86.5027 55.4245 74.2783 63.9928 73.9246C67.5553 73.9243 70.4535 76.8253 70.4535 80.391Z" fill="#0179FF"/>
<path d="M122.866 139C123.902 139 124.742 138.16 124.742 137.124C124.742 136.087 123.902 135.247 122.866 135.247H112.441L112.675 100.079C112.688 98.5336 111.878 97.071 110.561 96.2619L88.8286 82.8874V78.4825C88.8286 77.4462 87.9884 76.6061 86.9522 76.6061C85.9159 76.6061 85.0757 77.4462 85.0757 78.4825V135.247H74.2067V117.783C74.2067 112.627 71.9164 107.782 67.9229 104.49L65.4973 102.491C64.5193 101.685 63.1112 101.698 62.1485 102.522L59.8114 104.524C55.978 107.808 53.7796 112.576 53.7796 117.606V135.247H42.9105V67.3403C42.9105 67.1199 43.0169 66.9109 43.1947 66.7813L63.5883 51.944C63.8305 51.7679 64.1555 51.7679 64.3974 51.944L84.7913 66.7813C84.9691 66.9109 85.0755 67.1199 85.0755 67.3403V70.951C85.0755 71.9873 85.9156 72.8275 86.9519 72.8275C87.9882 72.8275 88.8283 71.9873 88.8283 70.951V67.3403C88.8283 65.9232 88.1446 64.5799 86.9992 63.7465L78.5673 57.6121V44.0743C78.5673 42.6574 77.883 41.3144 76.7381 40.4828L65.8693 32.5735V21.1705H70.2777C71.314 21.1705 72.1541 20.3304 72.1541 19.2941C72.1541 18.2578 71.314 17.4177 70.2777 17.4177H65.8693V12.8764C65.8693 11.8401 65.0292 11 63.9929 11C62.9566 11 62.1164 11.8401 62.1164 12.8764V17.4177H57.7081C56.6718 17.4177 55.8316 18.2578 55.8316 19.2941C55.8316 20.3304 56.6718 21.1705 57.7081 21.1705H62.1164V32.5735L51.2489 40.482C50.1025 41.3146 49.4185 42.6574 49.4185 44.0743V57.6121L40.9868 63.7465C39.8414 64.5799 39.1574 65.9232 39.1574 67.3403V83.3445L28.172 89.8857C27.2816 90.4161 26.9894 91.5678 27.5198 92.458C28.0532 93.3564 29.2163 93.6356 30.092 93.1102L39.1574 87.7121V135.247H19.2977L19.0638 100.072C19.0618 99.8293 19.1897 99.6019 19.3993 99.4773L23.7154 96.9074C24.6058 96.3772 24.8978 95.2256 24.3674 94.3351C23.8372 93.4447 22.6858 93.1527 21.7951 93.6831L17.4811 96.2521C16.1293 97.0547 15.2977 98.5308 15.3109 100.101L15.5446 135.248H5.12067C2.64578 135.329 2.62926 138.912 5.12067 139.001C5.12067 139 122.866 139 122.866 139ZM53.1716 44.0743C53.1716 43.8548 53.2774 43.6469 53.4561 43.5173L63.9931 35.8495L74.5314 43.5183C74.7086 43.6472 74.8146 43.8551 74.8146 44.0745V54.8818L66.6054 48.9092C65.0429 47.7728 62.9433 47.7726 61.3806 48.9092L53.1716 54.8818V44.0743ZM57.5324 135.247V117.606C57.5324 113.674 59.253 109.944 62.253 107.374L63.856 106.001L65.5358 107.386C68.6612 109.963 70.4538 113.752 70.4538 117.783V135.247H57.5324ZM88.8283 135.247V87.294L108.595 99.4588C108.799 99.5839 108.924 99.8091 108.922 100.05L108.688 135.247H88.8283Z" fill="#0179FF"/>
</g>
<g clip-path="url(#clip1_23_1883)">
<path d="M53.7795 80.391C53.7795 86.026 58.3613 90.6106 63.9931 90.6106C77.5427 90.0494 77.5387 70.7309 63.9931 70.1717C58.3613 70.1714 53.7795 74.7559 53.7795 80.391ZM70.4535 80.391C70.4535 83.9567 67.5553 86.8577 63.9928 86.8577C55.422 86.5027 55.4245 74.2783 63.9928 73.9246C67.5553 73.9243 70.4535 76.8253 70.4535 80.391Z" fill="#DCDDE4"/>
<path d="M122.866 139C123.902 139 124.742 138.16 124.742 137.124C124.742 136.087 123.902 135.247 122.866 135.247H112.441L112.675 100.079C112.688 98.5336 111.878 97.071 110.561 96.2619L88.8286 82.8874V78.4825C88.8286 77.4462 87.9884 76.6061 86.9522 76.6061C85.9159 76.6061 85.0757 77.4462 85.0757 78.4825V135.247H74.2067V117.783C74.2067 112.627 71.9164 107.782 67.9229 104.49L65.4973 102.491C64.5193 101.685 63.1112 101.698 62.1485 102.522L59.8114 104.524C55.978 107.808 53.7796 112.576 53.7796 117.606V135.247H42.9105V67.3403C42.9105 67.1199 43.0169 66.9109 43.1947 66.7813L63.5883 51.944C63.8305 51.7679 64.1555 51.7679 64.3974 51.944L84.7913 66.7813C84.9691 66.9109 85.0755 67.1199 85.0755 67.3403V70.951C85.0755 71.9873 85.9156 72.8275 86.9519 72.8275C87.9882 72.8275 88.8283 71.9873 88.8283 70.951V67.3403C88.8283 65.9232 88.1446 64.5799 86.9992 63.7465L78.5673 57.6121V44.0743C78.5673 42.6574 77.883 41.3144 76.7381 40.4828L65.8693 32.5735V21.1705H70.2777C71.314 21.1705 72.1541 20.3304 72.1541 19.2941C72.1541 18.2578 71.314 17.4177 70.2777 17.4177H65.8693V12.8764C65.8693 11.8401 65.0292 11 63.9929 11C62.9566 11 62.1164 11.8401 62.1164 12.8764V17.4177H57.7081C56.6718 17.4177 55.8316 18.2578 55.8316 19.2941C55.8316 20.3304 56.6718 21.1705 57.7081 21.1705H62.1164V32.5735L51.2489 40.482C50.1025 41.3146 49.4185 42.6574 49.4185 44.0743V57.6121L40.9868 63.7465C39.8414 64.5799 39.1574 65.9232 39.1574 67.3403V83.3445L28.172 89.8857C27.2816 90.4161 26.9894 91.5678 27.5198 92.458C28.0532 93.3564 29.2163 93.6356 30.092 93.1102L39.1574 87.7121V135.247H19.2977L19.0638 100.072C19.0618 99.8293 19.1897 99.6019 19.3993 99.4773L23.7154 96.9074C24.6058 96.3772 24.8978 95.2256 24.3674 94.3351C23.8372 93.4447 22.6858 93.1527 21.7951 93.6831L17.4811 96.2521C16.1293 97.0547 15.2977 98.5308 15.3109 100.101L15.5446 135.248H5.12067C2.64578 135.329 2.62926 138.912 5.12067 139.001C5.12067 139 122.866 139 122.866 139ZM53.1716 44.0743C53.1716 43.8548 53.2774 43.6469 53.4561 43.5173L63.9931 35.8495L74.5314 43.5183C74.7086 43.6472 74.8146 43.8551 74.8146 44.0745V54.8818L66.6054 48.9092C65.0429 47.7728 62.9433 47.7726 61.3806 48.9092L53.1716 54.8818V44.0743ZM57.5324 135.247V117.606C57.5324 113.674 59.253 109.944 62.253 107.374L63.856 106.001L65.5358 107.386C68.6612 109.963 70.4538 113.752 70.4538 117.783V135.247H57.5324ZM88.8283 135.247V87.294L108.595 99.4588C108.799 99.5839 108.924 99.8091 108.922 100.05L108.688 135.247H88.8283Z" fill="#DCDDE4"/>
</g>
<defs>
<clipPath id="clip0_23_1883">
<rect width="128" height="128" fill="white" transform="translate(0 11)"/>
</clipPath>
<clipPath id="clip1_23_1883">
<rect width="128" height="128" fill="white"/>
</clipPath>
</defs>
</svg>
