<svg width="34" height="34" viewBox="0 0 34 34" fill="none" xmlns="http://www.w3.org/2000/svg">
<g clip-path="url(#clip0_13_1571)">
<path d="M10.9653 21.4121C11.9497 20.4277 11.9497 18.8256 10.9653 17.8412C10.4883 17.3644 9.85432 17.1017 9.17988 17.1017C8.79 17.1017 8.41387 17.1899 8.0738 17.3561C6.8746 15.6405 6.24296 13.6327 6.24296 11.5209C6.24296 6.11637 10.4649 1.63914 15.8545 1.32786C16.221 1.30659 16.5006 0.992458 16.4796 0.626187C16.4584 0.259656 16.1442 -0.0191982 15.778 0.0010349C9.68597 0.353039 4.91406 5.41314 4.91406 11.5209C4.91406 13.9577 5.6588 16.2724 7.07071 18.2383C6.42558 19.2178 6.53349 20.5511 7.39444 21.4121C7.87147 21.8889 8.50544 22.1516 9.17988 22.1516C9.85432 22.1516 10.4883 21.8889 10.9653 21.4121ZM8.33398 18.781C8.56718 18.5478 8.87353 18.4311 9.17988 18.4311C9.48597 18.4311 9.79232 18.5478 10.0255 18.781C10.4919 19.2471 10.4919 20.0061 10.0255 20.4723C9.55912 20.9387 8.80038 20.9387 8.33398 20.4723C7.86784 20.0061 7.86784 19.2474 8.33398 18.781Z" fill="#BFC0CC"/>
<path d="M26.6982 23.0209C26.2782 23.0209 25.8834 23.1304 25.5407 23.3223C25.237 22.3592 24.3353 21.6588 23.2731 21.6588C22.601 21.6588 21.9932 21.9392 21.5605 22.389C21.4404 22.2645 21.3068 22.1532 21.1623 22.057C22.6938 21.3714 24.072 20.353 25.1872 19.063C26.9962 16.9696 27.9926 14.2911 27.9926 11.521C27.9926 9.08545 27.2478 6.76954 25.8362 4.80329C26.4813 3.8238 26.3734 2.49075 25.5122 1.62955C24.5278 0.645127 22.926 0.645127 21.9413 1.62955C20.9569 2.61397 20.9569 4.21601 21.9413 5.20043C22.4336 5.69277 23.0801 5.93894 23.7268 5.93894C24.1057 5.93894 24.4842 5.8536 24.8321 5.68447C26.0318 7.40066 26.6637 9.40996 26.6637 11.521C26.6637 16.3276 23.4007 20.3906 18.7997 21.4609V17.8843C21.4347 16.9115 23.2349 14.3645 23.2349 11.521C23.2349 7.78171 20.1927 4.73948 16.4532 4.73948C12.714 4.73948 9.67173 7.78145 9.67173 11.521C9.67173 12.9967 10.1379 14.4 11.0193 15.5787C11.7882 16.6067 12.852 17.4052 14.0455 17.8607V27.6346L13.2107 26.2652C12.5093 25.1137 11.045 24.7402 9.87744 25.4141C8.76695 26.0553 8.33375 27.4623 8.89431 28.6229L11.3729 33.63C11.4888 33.8643 11.7244 34 11.969 34C12.0681 34 12.1684 33.9779 12.2631 33.931C12.592 33.768 12.7267 33.3694 12.564 33.0407L10.0881 28.0392C9.83152 27.5077 10.0307 26.8603 10.542 26.5651C11.0704 26.26 11.7586 26.4356 12.0761 26.9567L14.1425 30.3474C14.2976 30.6016 14.6029 30.7217 14.8895 30.6413C15.1762 30.5608 15.3744 30.2994 15.3744 30.0013V14.7559C15.3744 14.178 15.8447 13.7079 16.4226 13.7079C17.0005 13.7079 17.4708 14.178 17.4708 14.7559V17.3841C17.4706 17.3888 17.4708 17.3935 17.4708 17.3984V27.3754C17.4708 27.7425 17.7681 28.0397 18.1351 28.0397C18.5022 28.0397 18.7997 27.7425 18.7997 27.3754V24.0359C18.7997 23.458 19.2698 22.9877 19.8477 22.9877C20.4256 22.9877 20.8959 23.458 20.8959 24.0359V27.6172C20.8959 27.9842 21.1935 28.2818 21.5603 28.2818C21.9273 28.2818 22.2248 27.9842 22.2248 27.6172V24.0359C22.2248 23.458 22.6951 22.9877 23.2731 22.9877C23.851 22.9877 24.321 23.458 24.321 24.0359V27.6621C24.321 28.0291 24.6186 28.3266 24.9856 28.3266C25.3527 28.3266 25.6499 28.0291 25.6499 27.6621V25.398C25.6499 24.8201 26.1202 24.3498 26.6982 24.3498C27.2761 24.3498 27.7464 24.8201 27.7464 25.398V33.3351C27.7464 33.7022 28.0437 33.9997 28.4107 33.9997C28.7778 33.9997 29.0753 33.7022 29.0753 33.3351V25.398C29.0753 24.0873 28.0089 23.0209 26.6982 23.0209ZM22.8811 4.26089C22.4147 3.79449 22.4147 3.03575 22.8811 2.56935C23.1143 2.33615 23.4204 2.21968 23.7268 2.21968C24.0331 2.21968 24.3395 2.33615 24.5727 2.56935C25.0388 3.03575 25.0388 3.79449 24.5727 4.26089C24.1063 4.72703 23.3473 4.72703 22.8811 4.26089ZM11.0006 11.521C11.0006 8.51426 13.4468 6.06812 16.4535 6.06812C19.4599 6.06812 21.906 8.51426 21.906 11.521C21.906 13.6382 20.6653 15.5512 18.7997 16.4438V14.7559C18.7997 14.3829 18.7131 14.0296 18.559 13.7149C19.1484 13.1469 19.4967 12.3549 19.4967 11.521C19.4967 9.84264 18.1315 8.47742 16.4535 8.47742C14.7752 8.47742 13.4099 9.84264 13.4099 11.521C13.4099 12.3305 13.7396 13.1085 14.3064 13.6755C14.1401 13.9998 14.0455 14.3671 14.0455 14.7559V16.4158C12.1952 15.5115 11.0006 13.6363 11.0006 11.521ZM15.2169 12.7085C14.9106 12.3915 14.7388 11.9715 14.7388 11.521C14.7388 10.5754 15.508 9.80632 16.4532 9.80632C17.3987 9.80632 18.1678 10.5754 18.1678 11.521C18.1678 11.978 17.9821 12.4133 17.6662 12.7313C17.304 12.508 16.8781 12.379 16.4226 12.379C15.9827 12.379 15.5707 12.4994 15.2169 12.7085Z" fill="#BFC0CC"/>
<path d="M18.8062 1.56573C18.981 1.56573 19.1525 1.49466 19.2759 1.37092C19.3997 1.24745 19.4707 1.07599 19.4707 0.901153C19.4707 0.726577 19.3997 0.555114 19.2759 0.431381C19.1525 0.307907 18.981 0.236832 18.8062 0.236832C18.6316 0.236832 18.4601 0.307907 18.3367 0.431381C18.2129 0.555114 18.1418 0.726577 18.1418 0.901153C18.1418 1.07599 18.2129 1.24745 18.3367 1.37092C18.4601 1.49466 18.6316 1.56573 18.8062 1.56573Z" fill="#BFC0CC"/>
</g>
<defs>
<clipPath id="clip0_13_1571">
<rect width="34" height="34" fill="white"/>
</clipPath>
</defs>
</svg>
