<!DOCTYPE svg PUBLIC "-//W3C//DTD SVG 1.1//EN" "http://www.w3.org/Graphics/SVG/1.1/DTD/svg11.dtd">
<!-- Uploaded to: SVG Repo, www.svgrepo.com, Transformed by: SVG Repo Mixer Tools -->
<svg version="1.1" id="Layer_1" xmlns="http://www.w3.org/2000/svg" xmlns:xlink="http://www.w3.org/1999/xlink" viewBox="0 0 512 512" xml:space="preserve" width="800px" height="800px" fill="#000000">
<g id="SVGRepo_bgCarrier" stroke-width="0"/>
<g id="SVGRepo_tracerCarrier" stroke-linecap="round" stroke-linejoin="round"/>
<g id="SVGRepo_iconCarrier"> <polygon style="fill:#9bc0e9;" points="68.728,295.757 131.153,259.717 193.576,367.839 193.576,512 68.728,439.919 "/> <rect x="143.057" y="179.288" transform="matrix(0.866 -0.5 0.5 0.866 -82.3752 175.9956)" style="fill:#3a46a1;" width="288.319" height="124.84"/> <polygon style="fill:#ccd2ff;" points="193.576,367.839 193.576,512 443.272,367.839 443.272,223.677 "/> <polygon style="fill:#9bc0e9;" points="131.153,259.717 131.153,133.576 193.576,169.616 193.576,313.777 153.88,246.548 "/> <polygon style="fill:#ccd2ff;" points="193.576,313.777 255.999,277.737 256.836,134.058 193.576,169.616 "/> <polygon style="fill:#182e72;" points="131.153,133.576 193.576,61.494 193.576,169.616 "/> <polygon style="fill:#3a46a1;" points="193.576,61.494 256.836,134.058 193.576,169.616 "/> <polygon style="fill:#D8D8DA;" points="183.709,5.677 193.543,0 203.376,5.677 203.376,73.804 193.543,79.482 183.709,73.804 "/> <polygon style="fill:#ACABB1;" points="203.376,5.677 193.543,11.355 193.543,79.482 203.376,73.804 "/> <polygon style="fill:#C6C5CB;" points="173.876,11.355 173.876,22.709 203.376,39.741 203.376,28.386 "/> <g> <polygon style="fill:#D8D8DA;" points="193.543,22.709 203.376,17.032 213.209,22.709 203.376,28.386 "/> <polygon style="fill:#D8D8DA;" points="173.568,11.532 183.401,5.856 193.234,11.532 183.401,17.21 "/> </g> <polygon style="fill:#ACABB1;" points="213.209,22.709 213.209,34.064 203.376,39.741 203.376,28.386 "/> <path style="fill:#EDE6DE;" d="M131.134,308.256c-8.893-5.135-16.159-0.928-16.148,9.346c0.011,10.275,7.287,22.888,16.169,28.029 s16.148,0.935,16.148-9.346C147.302,326.004,140.027,313.39,131.134,308.256z"/> <path style="fill:#2487FF;" d="M170.39,182.469v27.784l-15.913-9.014l0.015-25.925c0.002-4.452,4.785-7.267,8.679-5.106l0,0 C167.626,172.679,170.39,177.374,170.39,182.469z"/> <path style="fill:#5E4C36;" d="M132.938,390.753L132.938,390.753c-9.432-5.233-21.016,1.584-21.022,12.37l-0.036,61.71 l38.545,22.254v-66.635C150.424,408.11,143.73,396.74,132.938,390.753z"/> <path style="fill:#3a46a1;" d="M132.598,407.183c-7.635-4.236-17.013,1.282-17.018,10.013l-0.029,49.756l31.202,18.015v-53.744 C146.754,421.233,141.334,412.029,132.598,407.183z"/> <g> <path style="fill:#2487FF;" d="M217.138,379.785v27.785l15.913-9.186l-0.015-25.752c-0.002-4.453-4.785-7.267-8.679-5.106l0,0 C219.902,369.996,217.138,374.69,217.138,379.785z"/> <path style="fill:#2487FF;" d="M248.044,361.941v27.784l15.913-9.186l-0.015-25.752c-0.002-4.453-4.785-7.267-8.679-5.106l0,0 C250.807,352.152,248.044,356.846,248.044,361.941z"/> <path style="fill:#2487FF;" d="M278.948,344.097v27.784l15.913-9.186l-0.015-25.752c-0.002-4.453-4.785-7.267-8.679-5.106l0,0 C281.713,334.308,278.948,339.002,278.948,344.097z"/> <path style="fill:#2487FF;" d="M309.854,326.252v27.784l15.913-9.186l-0.015-25.752c-0.002-4.453-4.785-7.267-8.679-5.106l0,0 C312.617,316.464,309.854,321.157,309.854,326.252z"/> <path style="fill:#2487FF;" d="M340.759,308.408v27.784l15.913-9.186l-0.015-25.752c-0.002-4.453-4.785-7.267-8.679-5.106l0,0 C343.523,298.619,340.759,303.313,340.759,308.408z"/> <path style="fill:#2487FF;" d="M371.664,290.564v27.784l15.913-9.186l-0.015-25.752c-0.002-4.453-4.785-7.267-8.679-5.106l0,0 C374.428,280.775,371.664,285.469,371.664,290.564z"/> <path style="fill:#2487FF;" d="M402.569,272.72v27.784l15.913-9.186l-0.015-25.752c-0.002-4.452-4.785-7.267-8.679-5.106l0,0 C405.333,262.931,402.569,267.625,402.569,272.72z"/> <path style="fill:#2487FF;" d="M216.824,182.469v27.784l15.913-9.186l-0.015-25.752c-0.002-4.452-4.785-7.267-8.679-5.106l0,0 C219.587,172.679,216.824,177.374,216.824,182.469z"/> </g> <polygon style="fill:#C6C5CB;" points="183.709,5.677 193.543,11.355 193.543,79.482 183.709,73.804 "/> </g>
</svg>