<svg width="34" height="34" viewBox="0 0 34 34" fill="none" xmlns="http://www.w3.org/2000/svg">
<path d="M7.70312 22.3125V11.6875C7.70312 10.954 7.10852 10.3594 6.375 10.3594C5.64148 10.3594 5.04688 10.954 5.04688 11.6875V22.3125C5.04688 23.046 5.64148 23.6406 6.375 23.6406C7.10852 23.6406 7.70312 23.046 7.70312 22.3125Z" fill="#0179FF"/>
<path d="M17 5.04688C16.2665 5.04688 15.6719 5.64148 15.6719 6.375V27.625C15.6719 28.3585 16.2665 28.9531 17 28.9531C17.7335 28.9531 18.3281 28.3585 18.3281 27.625V6.375C18.3281 5.64148 17.7335 5.04688 17 5.04688Z" fill="#0179FF"/>
<path d="M27.625 23.6406C28.3585 23.6406 28.9531 23.046 28.9531 22.3125V11.6875C28.9531 10.954 28.3585 10.3594 27.625 10.3594C26.8915 10.3594 26.2969 10.954 26.2969 11.6875V22.3125C26.2969 23.046 26.8915 23.6406 27.625 23.6406Z" fill="#0179FF"/>
<path d="M11.6875 13.0156C10.954 13.0156 10.3594 13.6102 10.3594 14.3438V19.6562C10.3594 20.3898 10.954 20.9844 11.6875 20.9844C12.421 20.9844 13.0156 20.3898 13.0156 19.6562V14.3438C13.0156 13.6102 12.421 13.0156 11.6875 13.0156Z" fill="#0179FF"/>
<path d="M22.3125 13.0156C21.579 13.0156 20.9844 13.6102 20.9844 14.3438V19.6562C20.9844 20.3898 21.579 20.9844 22.3125 20.9844C23.046 20.9844 23.6406 20.3898 23.6406 19.6562V14.3438C23.6406 13.6102 23.046 13.0156 22.3125 13.0156Z" fill="#0179FF"/>
<path d="M6.64062 31.3438H3.98438C3.25205 31.3438 2.65625 30.748 2.65625 30.0156V27.3594C2.65625 26.6259 2.06165 26.0312 1.32812 26.0312C0.594602 26.0312 0 26.6259 0 27.3594V30.0156C0 32.2126 1.78739 34 3.98438 34H6.64062C7.37415 34 7.96875 33.4054 7.96875 32.6719C7.96875 31.9384 7.37415 31.3438 6.64062 31.3438Z" fill="#0179FF"/>
<path d="M6.64062 0H3.98438C1.78739 0 0 1.78739 0 3.98438V6.64062C0 7.37415 0.594602 7.96875 1.32812 7.96875C2.06165 7.96875 2.65625 7.37415 2.65625 6.64062V3.98438C2.65625 3.25205 3.25205 2.65625 3.98438 2.65625H6.64062C7.37415 2.65625 7.96875 2.06165 7.96875 1.32812C7.96875 0.594602 7.37415 0 6.64062 0Z" fill="#0179FF"/>
<path d="M30.0156 0H27.3594C26.6259 0 26.0312 0.594602 26.0312 1.32812C26.0312 2.06165 26.6259 2.65625 27.3594 2.65625H30.0156C30.748 2.65625 31.3438 3.25205 31.3438 3.98438V6.64062C31.3438 7.37415 31.9384 7.96875 32.6719 7.96875C33.4054 7.96875 34 7.37415 34 6.64062V3.98438C34 1.78739 32.2126 0 30.0156 0Z" fill="#0179FF"/>
<path d="M32.6719 26.0312C31.9384 26.0312 31.3438 26.6259 31.3438 27.3594V30.0156C31.3438 30.748 30.748 31.3438 30.0156 31.3438H27.3594C26.6259 31.3438 26.0312 31.9384 26.0312 32.6719C26.0312 33.4054 26.6259 34 27.3594 34H30.0156C32.2126 34 34 32.2126 34 30.0156V27.3594C34 26.6259 33.4054 26.0312 32.6719 26.0312Z" fill="#0179FF"/>
</svg>
