<svg width="34" height="34" viewBox="0 0 34 34" fill="none" xmlns="http://www.w3.org/2000/svg">
<g clip-path="url(#clip0_13_1582)">
<path d="M31.4068 9.22155L31.4062 9.18914C31.3901 8.34151 31.3749 7.54088 31.3749 6.7706C31.3749 5.60372 30.4256 4.65443 29.2588 4.65443C24.7438 4.65443 21.3172 3.36717 18.4747 0.603426C17.6475 -0.201118 16.3513 -0.201184 15.5241 0.603359C12.6818 3.36717 9.25551 4.65443 4.74125 4.65443C3.57437 4.65443 2.62508 5.60372 2.62508 6.7706C2.62508 7.55735 2.60961 8.36594 2.59321 9.22221C2.51685 13.2194 2.42183 18.1941 4.09128 22.7097C5.00923 25.1927 6.39914 27.3505 8.22242 29.1232C10.299 31.1422 13.0189 32.7437 16.3062 33.8831C16.5297 33.9607 16.7629 34 16.9994 34C17.2361 34 17.4694 33.9606 17.6924 33.8832C20.9802 32.7436 23.7003 31.1421 25.777 29.1231C27.6005 27.3503 28.9906 25.1924 29.9086 22.7094C31.5782 18.1935 31.4832 13.2188 31.4068 9.22155ZM28.0402 22.0186C26.2795 26.7805 22.6814 30.0458 17.0394 32.0014C17.0136 32.0103 16.9854 32.0104 16.9587 32.0012C11.3177 30.0459 7.71986 26.7807 5.95952 22.019C4.42054 17.8561 4.50773 13.2894 4.58468 9.26026C4.60128 8.39436 4.61695 7.57647 4.61695 6.7706C4.61695 6.70214 4.67266 6.64637 4.74118 6.64637C9.80728 6.64637 13.6749 5.17997 16.9128 2.03138C16.937 2.00781 16.9682 1.99599 16.9993 1.99599C17.0304 1.99599 17.0617 2.00787 17.086 2.03145C20.324 5.17997 24.192 6.64637 29.2587 6.64637C29.3271 6.64637 29.3829 6.70214 29.3829 6.7706C29.3829 7.55981 29.3983 8.36959 29.4146 9.22692L29.4152 9.25946V9.25953C29.4922 13.2888 29.5794 17.8555 28.0402 22.0186Z" fill="#BFC0CC"/>
<path d="M23.1884 13.6858H19.9837V10.4807C19.9837 9.93068 19.5378 9.48475 18.9878 9.48475H15.0128C14.4627 9.48475 14.0168 9.93068 14.0168 10.4807V13.6858H10.8115C10.2615 13.6858 9.81555 14.1317 9.81555 14.6818V18.6568C9.81555 19.2068 10.2615 19.6527 10.8115 19.6527H14.0168V22.8578C14.0168 23.4078 14.4627 23.8537 15.0128 23.8537H18.9878C19.5378 23.8537 19.9837 23.4078 19.9837 22.8578V19.6527H23.1885C23.7385 19.6527 24.1845 19.2068 24.1845 18.6568V14.6818C24.1844 14.1317 23.7385 13.6858 23.1884 13.6858ZM22.1925 17.6608H18.9878C18.4377 17.6608 17.9918 18.1067 17.9918 18.6568V21.8618H16.0088V18.6568C16.0088 18.1067 15.5628 17.6608 15.0128 17.6608H11.8075V15.6778H15.0128C15.5628 15.6778 16.0088 15.2318 16.0088 14.6818V11.4767H17.9918V14.6818C17.9918 15.2318 18.4377 15.6778 18.9878 15.6778H22.1925V17.6608H22.1925Z" fill="#BFC0CC"/>
</g>
<defs>
<clipPath id="clip0_13_1582">
<rect width="34" height="34" fill="white"/>
</clipPath>
</defs>
</svg>
