<svg width="339" height="42" viewBox="0 0 339 42" fill="none" xmlns="http://www.w3.org/2000/svg">
<path d="M133.19 26.2476C131.244 34.6611 124.59 39.3052 122.86 40.3928C122.605 40.5509 122.285 40.5542 122.027 40.396C120.217 39.2826 113.065 34.3352 111.661 24.805C111.458 22.875 111.713 21.0645 112.32 19.7639C113.465 17.3112 115.657 15.6136 118.326 15.1005C120.178 14.7455 122.027 15.0133 123.641 15.8395C121.766 15.5426 119.852 16.0654 118.367 17.3596C116.263 19.1895 115.611 21.9746 116.663 24.6242C117.58 26.9317 119.487 28.8036 121.895 29.7524C124.312 30.7077 126.988 30.6464 129.231 29.5846C130.063 29.1908 130.809 28.7197 131.461 28.1742C132.116 27.6288 132.726 26.9414 133.194 26.2476H133.19Z" fill="#0179FF"/>
<path d="M133.726 21.2259C133.726 21.2259 133.726 21.2324 133.726 21.2356C133.703 22.3587 133.445 23.4721 132.948 24.5468C131.815 27.006 129.634 28.7165 126.968 29.2425C125.119 29.6104 123.27 29.349 121.653 28.5357C123.528 28.8197 125.438 28.2872 126.916 26.9866C129.011 25.1438 129.647 22.3555 128.582 19.7123C127.652 17.408 125.735 15.5523 123.324 14.6132C120.901 13.674 118.229 13.7515 115.989 14.823C114.327 15.6201 113.026 16.7238 112.097 18.118C112.603 16.7981 113.342 15.5943 114.285 14.5615C114.285 14.5615 114.288 14.5615 114.288 14.5583C114.933 13.8515 115.673 13.2222 116.499 12.6865C118.371 11.4795 120.491 10.9018 122.598 10.9018C126.206 10.9018 129.769 12.5994 131.945 15.7266C132.148 16.0171 132.332 16.3107 132.5 16.6077C132.522 16.6464 132.545 16.6851 132.564 16.7271C132.59 16.7722 132.616 16.8174 132.638 16.8658C132.735 17.0498 132.829 17.2337 132.913 17.4209C133.484 18.6731 133.758 19.9576 133.732 21.2324L133.726 21.2259Z" fill="#0179FF"/>
<path d="M15.7879 40.338L0 2.23331H9.03642L19.3799 27.9807L19.8704 26.6187L29.6685 2.23331H38.6501L22.917 40.338H15.7847H15.7879Z" fill="#0179FF"/>
<path d="M40.3376 5.00876C40.3376 3.54034 40.8282 2.33979 41.7544 1.41678C42.7355 0.490548 43.9329 0 45.4013 0C46.8697 0 48.067 0.490548 48.9932 1.41678C49.9743 2.34301 50.4617 3.54034 50.4617 5.00876C50.4617 6.47718 49.9711 7.6745 48.9932 8.60074C48.067 9.52697 46.8697 10.0175 45.4013 10.0175C43.9329 10.0175 42.7355 9.52697 41.7544 8.60074C40.8282 7.6745 40.3376 6.47718 40.3376 5.00876ZM41.3187 40.3379V12.0314H49.4838V40.3379H41.3187Z" fill="#0179FF"/>
<path d="M68.7507 20.2513C68.2602 18.6731 66.8466 17.8566 64.5036 17.8566C62.3801 17.8566 61.2925 18.4569 61.2925 19.7091C61.2925 20.4159 62.0541 21.071 63.5258 21.6132L68.5894 23.2462C74.3049 25.0438 76.6447 27.6547 76.6447 31.9567C76.6447 37.8917 72.0168 41.048 64.9974 41.048C57.978 41.048 53.6212 37.9465 52.8047 32.557L60.3178 31.5242C60.8632 33.4283 62.4963 34.3546 65.162 34.3546C67.3404 34.3546 68.8637 33.5929 68.8637 32.2859C68.8637 31.3596 67.9375 30.6529 66.0334 30.1074L60.8632 28.5842C55.5834 27.1157 53.405 24.6114 53.405 20.4191C53.405 14.1582 57.978 11.3278 64.8909 11.3278C71.8038 11.3278 75.5055 14.213 76.2123 19.0572L68.754 20.2545L68.7507 20.2513Z" fill="#0179FF"/>
<path d="M79.2043 5.00876C79.2043 3.54034 79.6949 2.33979 80.6211 1.41678C81.6022 0.490548 82.7995 0 84.268 0C85.7364 0 86.9337 0.490548 87.8599 1.41678C88.841 2.34301 89.3284 3.54034 89.3284 5.00876C89.3284 6.47718 88.8378 7.6745 87.8599 8.60074C86.9337 9.52697 85.7364 10.0175 84.268 10.0175C82.7995 10.0175 81.6022 9.52697 80.6211 8.60074C79.6949 7.6745 79.2043 6.47718 79.2043 5.00876ZM80.1854 40.3379V12.0314H88.3505V40.3379H80.1854Z" fill="#0179FF"/>
<path d="M91.0676 12.0314H94.9339V6.53204H103.099V12.0314H109.521V19.1088H103.099V29.7234C103.099 31.4661 104.406 32.7183 106.2 32.7183H109.521V40.3379H104.842C102.066 40.3379 99.6716 39.4666 97.7643 37.7787C95.8602 36.036 94.9339 33.8608 94.9339 31.3015V19.1088H91.0676V12.0314Z" fill="#0179FF"/>
<path d="M145.599 14.9714C147.503 12.5219 150.388 11.3246 154.255 11.3246V20.0351C153.493 19.5445 152.512 19.2734 151.315 19.2734C148.049 19.2734 145.599 21.7778 145.599 25.0987V40.3412H137.434V12.0346H145.599V14.9747V14.9714Z" fill="#0179FF"/>
<path d="M177.156 3.29504C180.693 3.29504 183.633 4.43751 185.973 6.67079C188.313 8.90408 189.51 11.7344 189.51 15.0553C189.51 20.2254 186.354 24.4177 181.561 26.1056L190.923 41.4029H185.424L176.497 26.8156H164.795V41.4029H159.896V3.29827H177.153L177.156 3.29504ZM164.799 7.86812V22.2393H177.156C179.224 22.2393 180.967 21.5325 182.326 20.1706C183.685 18.8086 184.395 17.0691 184.395 15.0521C184.395 10.9147 181.293 7.86812 177.156 7.86812H164.799Z" fill="#0179FF"/>
<path d="M198.872 28.8229C199.198 31.3822 200.34 33.5057 202.248 35.1904C204.155 36.875 206.495 37.6948 209.215 37.6948C212.807 37.6948 215.583 36.3328 217.597 33.6122L222.06 35.029C219.446 39.331 214.712 41.9967 209.212 41.9967C204.91 41.9967 201.318 40.58 198.433 37.8045C195.548 34.9742 194.134 31.4338 194.134 27.2448C194.134 23.0558 195.548 19.5154 198.327 16.7399C201.102 13.9096 204.587 12.4928 208.725 12.4928C212.862 12.4928 216.345 13.9096 219.123 16.7399C221.899 19.5154 223.315 23.0558 223.315 27.2448C223.315 27.5707 223.261 28.1162 223.206 28.8229H198.872ZM218.578 25.1212C218.142 22.6717 217 20.6579 215.147 19.0797C213.298 17.5016 211.12 16.7399 208.615 16.7399C206.111 16.7399 204.042 17.5016 202.248 19.0797C200.45 20.6579 199.363 22.6717 198.927 25.1212H218.578Z" fill="#0179FF"/>
<path d="M251.945 17.1208V13.0931H256.519V41.3997H251.945V37.3721C249.28 40.4735 245.794 42 241.602 42C237.629 42 234.308 40.5832 231.639 37.8078C228.974 34.9774 227.667 31.4371 227.667 27.2481C227.667 23.059 228.974 19.5187 231.639 16.7432C234.305 13.9129 237.626 12.4961 241.602 12.4961C245.794 12.4961 249.276 14.0194 251.945 17.124V17.1208ZM235.18 20.006C233.327 21.9101 232.404 24.3596 232.404 27.2448C232.404 30.13 233.33 32.5795 235.18 34.5385C237.084 36.4426 239.372 37.4237 242.093 37.4237C244.813 37.4237 247.156 36.4426 249.005 34.5385C250.909 32.5795 251.836 30.13 251.836 27.2448C251.836 24.3596 250.909 21.9101 249.005 20.006C247.156 18.047 244.868 17.0659 242.093 17.0659C239.317 17.0659 237.084 18.047 235.18 20.006Z" fill="#0179FF"/>
<path d="M286.455 22.4006C284.767 19.1346 281.446 17.0659 277.528 17.0659C274.697 17.0659 272.303 18.047 270.396 20.006C268.491 21.9101 267.51 24.3596 267.51 27.2448C267.51 30.13 268.491 32.5795 270.396 34.5385C272.3 36.4426 274.697 37.4237 277.528 37.4237C281.446 37.4237 284.767 35.355 286.455 32.089L291.028 33.4509C288.688 38.6759 283.624 41.9967 277.528 41.9967C273.336 41.9967 269.798 40.58 266.968 37.8045C264.193 34.9742 262.776 31.4338 262.776 27.2448C262.776 23.0558 264.189 19.5154 266.968 16.7399C269.747 13.9645 273.336 12.4928 277.528 12.4928C283.624 12.4928 288.688 15.8137 291.028 21.0387L286.455 22.4006Z" fill="#0179FF"/>
<path d="M296.853 0.571198H301.426V17.8275C303.659 14.2904 307.031 12.4928 311.55 12.4928C314.871 12.4928 317.591 13.5804 319.77 15.704C321.948 17.8275 323.036 20.5481 323.036 23.7593V41.3965H318.463V24.9566C318.463 22.6717 317.701 20.7644 316.123 19.1862C314.545 17.6081 312.641 16.8464 310.298 16.8464C307.793 16.8464 305.67 17.6629 303.982 19.2411C302.294 20.8192 301.422 22.7233 301.422 25.0664V41.3965H296.849V0.571198H296.853Z" fill="#0179FF"/>
<path fill-rule="evenodd" clip-rule="evenodd" d="M323.333 1.40714V2.02355H326.308V8.82346H326.967V2.02355H329.945V1.40714H323.333ZM331.198 1.40714V8.82346H331.866V2.68192L334.832 7.84559H335.261L338.24 2.67223V8.82346H338.898V1.40714H338.24L335.054 6.94517L331.869 1.40714H331.198Z" fill="#0179FF"/>
</svg>
