<svg width="48" height="68" viewBox="0 0 48 68" fill="none" xmlns="http://www.w3.org/2000/svg">
<path d="M30.6339 29.6805L23.5769 40.1019L13.1414 50.4852C9.2604 45.5526 5.02235 40.7744 2.43848 34.9951L8.06336 26.3783L16.6905 18.0552C13.8071 21.6187 14.0224 26.8598 17.3365 30.1739C20.882 33.7194 26.6291 33.7194 30.1745 30.1739C30.3343 30.0141 30.4886 29.849 30.6339 29.6805Z" fill="#ECB72B"/>
<path d="M30.7974 29.4848C33.7059 25.9196 33.4996 20.6605 30.1747 17.3375C26.6292 13.7919 20.8821 13.7919 17.3367 17.3375C17.1878 17.4864 17.0459 17.639 16.9097 17.795L22.8611 8.12003L30.9355 1.10632C36.9661 3.01537 41.9541 7.26604 44.8341 12.7908L38.9435 22.289L30.7974 29.4848Z" fill="#5085F7"/>
<path d="M16.6904 18.0558L2.43804 34.9959C1.02452 31.8372 0.105585 28.3795 0.010757 24.4334C0.0035851 24.2091 0 23.9831 0 23.757C0 17.9507 2.08317 12.6288 5.54439 8.50201L16.6904 18.0558Z" fill="#DA2F2A"/>
<path d="M16.6904 18.0557L5.54395 8.50134C9.90233 3.30504 16.4426 0 23.756 0C26.2589 0 28.6713 0.387282 30.9365 1.105L16.6904 18.0557Z" fill="#4274EB"/>
<path d="M47.5118 23.7555C47.5118 19.8005 46.5452 16.0711 44.8355 12.7908L13.1411 50.4864C16.7421 55.0669 20.0324 59.7813 21.3998 65.5546C21.4436 65.7394 21.4908 65.9555 21.541 66.1984C22.0368 68.6005 25.4762 68.6005 25.972 66.1984C26.0222 65.9555 26.0694 65.7394 26.1132 65.5546C29.7586 50.1626 47.0719 42.2967 47.5017 24.4334C47.5078 24.2081 47.5118 23.9822 47.5118 23.7555Z" fill="#4CAF50"/>
</svg>
