<svg width="22" height="31" viewBox="0 0 22 31" fill="none" xmlns="http://www.w3.org/2000/svg">
<path d="M10.1383 30.582C10.3066 30.8346 10.5901 30.9863 10.8936 30.9863C11.1971 30.9863 11.4806 30.8346 11.649 30.582C13.7974 27.3595 16.9618 23.3796 19.1669 19.332C20.9301 16.0956 21.7872 13.3354 21.7872 10.8936C21.7872 4.88688 16.9004 0 10.8936 0C4.88688 0 0 4.88688 0 10.8936C0 13.3354 0.857146 16.0956 2.62034 19.332C4.82382 23.3766 7.99428 27.3662 10.1383 30.582ZM10.8936 1.8156C15.8992 1.8156 19.9716 5.888 19.9716 10.8936C19.9716 13.0242 19.1869 15.5003 17.5726 18.4634C15.6718 21.9523 12.9594 25.4915 10.8936 28.4668C8.82813 25.4919 6.11556 21.9525 4.21468 18.4634C2.60037 15.5003 1.8156 13.0242 1.8156 10.8936C1.8156 5.888 5.888 1.8156 10.8936 1.8156Z" fill="#1386FE"/>
<path d="M10.8936 16.3404C13.897 16.3404 16.3404 13.897 16.3404 10.8936C16.3404 7.89025 13.897 5.44681 10.8936 5.44681C7.89022 5.44681 5.44678 7.89025 5.44678 10.8936C5.44678 13.897 7.89022 16.3404 10.8936 16.3404ZM10.8936 7.26242C12.8958 7.26242 14.5248 8.89137 14.5248 10.8936C14.5248 12.8959 12.8958 14.5248 10.8936 14.5248C8.89134 14.5248 7.26238 12.8959 7.26238 10.8936C7.26238 8.89137 8.89134 7.26242 10.8936 7.26242Z" fill="#1386FE"/>
</svg>
