<svg width="276" height="41" viewBox="0 0 276 41" fill="none" xmlns="http://www.w3.org/2000/svg">
<path d="M133.355 23.9516C132.006 29.7859 127.391 33.0063 126.192 33.7604C126.015 33.8701 125.793 33.8723 125.614 33.7627C124.359 32.9906 119.4 29.5599 118.426 22.9513C118.285 21.613 118.462 20.3576 118.883 19.4557C119.677 17.7549 121.197 16.5777 123.048 16.2219C124.332 15.9757 125.614 16.1615 126.733 16.7344C125.433 16.5285 124.106 16.891 123.077 17.7884C121.617 19.0573 121.165 20.9886 121.895 22.826C122.531 24.4261 123.853 25.7241 125.523 26.382C127.199 27.0445 129.054 27.0019 130.609 26.2657C131.187 25.9926 131.704 25.6659 132.156 25.2877C132.61 24.9095 133.033 24.4328 133.358 23.9516H133.355Z" fill="#050617"/>
<path d="M133.727 20.4694C133.727 20.4694 133.727 20.4739 133.727 20.4761C133.711 21.2549 133.532 22.027 133.187 22.7722C132.402 24.4775 130.889 25.6636 129.041 26.0284C127.758 26.2835 126.476 26.1022 125.355 25.5383C126.655 25.7352 127.98 25.366 129.005 24.4641C130.457 23.1862 130.898 21.2527 130.16 19.4198C129.515 17.8219 128.186 16.5351 126.514 15.8839C124.833 15.2327 122.98 15.2864 121.427 16.0294C120.275 16.5821 119.373 17.3475 118.728 18.3143C119.08 17.399 119.592 16.5642 120.246 15.8481C120.246 15.8481 120.248 15.8481 120.248 15.8459C120.695 15.3558 121.208 14.9194 121.781 14.5479C123.079 13.7109 124.549 13.3103 126.01 13.3103C128.512 13.3103 130.983 14.4874 132.491 16.656C132.632 16.8574 132.76 17.0611 132.876 17.2669C132.892 17.2938 132.908 17.3206 132.921 17.3497C132.939 17.3811 132.957 17.4124 132.973 17.446C133.04 17.5735 133.105 17.7011 133.163 17.8309C133.559 18.6992 133.749 19.5899 133.731 20.4739L133.727 20.4694Z" fill="#050617"/>
<path d="M51.9444 33.7224L40.9965 7.29932H47.2627L54.4352 25.1534L54.7754 24.209L61.5697 7.29932H67.7978L56.888 33.7224H51.9422H51.9444Z" fill="#050617"/>
<path d="M68.968 9.22386C68.968 8.2056 69.3082 7.3731 69.9504 6.73306C70.6308 6.09077 71.461 5.75061 72.4793 5.75061C73.4975 5.75061 74.3278 6.09077 74.9701 6.73306C75.6504 7.37534 75.9883 8.2056 75.9883 9.22386C75.9883 10.2421 75.6482 11.0724 74.9701 11.7147C74.3278 12.3569 73.4975 12.6971 72.4793 12.6971C71.461 12.6971 70.6308 12.3569 69.9504 11.7147C69.3082 11.0724 68.968 10.2421 68.968 9.22386ZM69.6483 33.7223V14.0936H75.3103V33.7223H69.6483Z" fill="#050617"/>
<path d="M88.6707 19.7936C88.3305 18.6992 87.3503 18.133 85.7256 18.133C84.2531 18.133 83.4989 18.5493 83.4989 19.4176C83.4989 19.9077 84.027 20.362 85.0475 20.738L88.5588 21.8703C92.5222 23.1169 94.1446 24.9273 94.1446 27.9105C94.1446 32.026 90.9355 34.2147 86.068 34.2147C81.2005 34.2147 78.1794 32.064 77.6132 28.3267L82.823 27.6106C83.2012 28.931 84.3336 29.5732 86.1821 29.5732C87.6927 29.5732 88.749 29.0451 88.749 28.1387C88.749 27.4965 88.1068 27.0064 86.7864 26.6281L83.2012 25.5719C79.54 24.5536 78.0294 22.817 78.0294 19.9099C78.0294 15.5684 81.2005 13.6057 85.9942 13.6057C90.7878 13.6057 93.3547 15.6064 93.8448 18.9655L88.6729 19.7958L88.6707 19.7936Z" fill="#050617"/>
<path d="M95.9195 9.22386C95.9195 8.2056 96.2596 7.3731 96.9019 6.73306C97.5822 6.09077 98.4125 5.75061 99.4308 5.75061C100.449 5.75061 101.279 6.09077 101.922 6.73306C102.602 7.37534 102.94 8.2056 102.94 9.22386C102.94 10.2421 102.6 11.0724 101.922 11.7147C101.279 12.3569 100.449 12.6971 99.4308 12.6971C98.4125 12.6971 97.5822 12.3569 96.9019 11.7147C96.2596 11.0724 95.9195 10.2421 95.9195 9.22386ZM96.5998 33.7223V14.0936H102.262V33.7223H96.5998Z" fill="#050617"/>
<path d="M104.146 14.0936H106.827V10.2802H112.489V14.0936H116.942V19.0013H112.489V26.3618C112.489 27.5703 113.395 28.4386 114.64 28.4386H116.942V33.7223H113.697C111.773 33.7223 110.112 33.1181 108.79 31.9477C107.469 30.7392 106.827 29.2308 106.827 27.4562V19.0013H104.146V14.0936Z" fill="#050617"/>
<path d="M141.96 16.1324C143.28 14.4338 145.281 13.6035 147.962 13.6035V19.6437C147.434 19.3035 146.754 19.1155 145.923 19.1155C143.659 19.1155 141.96 20.8521 141.96 23.1549V33.7246H136.298V14.0959H141.96V16.1346V16.1324Z" fill="#050617"/>
<path d="M163.842 8.03552C166.295 8.03552 168.334 8.82774 169.956 10.3764C171.579 11.925 172.409 13.8877 172.409 16.1905C172.409 19.7756 170.22 22.6827 166.897 23.8531L173.389 34.4608H169.576L163.386 24.3455H155.271V34.4608H151.874V8.03776H163.84L163.842 8.03552ZM155.273 11.2066V21.1721H163.842C165.277 21.1721 166.485 20.682 167.427 19.7376C168.37 18.7932 168.862 17.5869 168.862 16.1883C168.862 13.3192 166.711 11.2066 163.842 11.2066H155.273Z" fill="#050617"/>
<path d="M178.901 25.7374C179.127 27.5121 179.92 28.9846 181.242 30.1528C182.565 31.321 184.187 31.8895 186.074 31.8895C188.565 31.8895 190.489 30.9451 191.886 29.0585L194.981 30.0409C193.168 33.0241 189.885 34.8726 186.072 34.8726C183.088 34.8726 180.598 33.8902 178.597 31.9655C176.596 30.0029 175.616 27.5479 175.616 24.6431C175.616 21.7383 176.596 19.2833 178.523 17.3587C180.448 15.396 182.865 14.4136 185.734 14.4136C188.603 14.4136 191.017 15.396 192.944 17.3587C194.869 19.2833 195.851 21.7383 195.851 24.6431C195.851 24.8691 195.813 25.2473 195.775 25.7374H178.901ZM192.566 23.1705C192.264 21.472 191.472 20.0755 190.187 18.9812C188.905 17.8868 187.394 17.3587 185.658 17.3587C183.921 17.3587 182.486 17.8868 181.242 18.9812C179.996 20.0755 179.241 21.472 178.939 23.1705H192.566Z" fill="#050617"/>
<path d="M215.704 17.6228V14.8299H218.875V34.4587H215.704V31.6658C213.856 33.8164 211.439 34.8749 208.532 34.8749C205.777 34.8749 203.474 33.8925 201.623 31.9679C199.775 30.0052 198.868 27.5502 198.868 24.6454C198.868 21.7406 199.775 19.2856 201.623 17.361C203.472 15.3983 205.774 14.4159 208.532 14.4159C211.439 14.4159 213.853 15.4722 215.704 17.6251V17.6228ZM204.078 19.6235C202.794 20.9439 202.153 22.6425 202.153 24.6432C202.153 26.6439 202.796 28.3424 204.078 29.7009C205.398 31.0212 206.985 31.7016 208.872 31.7016C210.758 31.7016 212.383 31.0212 213.665 29.7009C214.986 28.3424 215.628 26.6439 215.628 24.6432C215.628 22.6425 214.986 20.9439 213.665 19.6235C212.383 18.2651 210.796 17.5848 208.872 17.5848C206.947 17.5848 205.398 18.2651 204.078 19.6235Z" fill="#050617"/>
<path d="M239.634 21.284C238.464 19.0192 236.161 17.5847 233.444 17.5847C231.481 17.5847 229.821 18.265 228.498 19.6234C227.178 20.9438 226.497 22.6424 226.497 24.6431C226.497 26.6438 227.178 28.3424 228.498 29.7008C229.819 31.0212 231.481 31.7015 233.444 31.7015C236.161 31.7015 238.464 30.267 239.634 28.0022L242.805 28.9466C241.183 32.5698 237.671 34.8726 233.444 34.8726C230.537 34.8726 228.084 33.8902 226.121 31.9655C224.197 30.0029 223.214 27.5479 223.214 24.6431C223.214 21.7383 224.195 19.2833 226.121 17.3587C228.048 15.4341 230.537 14.4136 233.444 14.4136C237.671 14.4136 241.183 16.7164 242.805 20.3396L239.634 21.284Z" fill="#050617"/>
<path d="M246.844 6.14673H250.015V18.1129C251.564 15.6601 253.903 14.4136 257.036 14.4136C259.339 14.4136 261.225 15.1678 262.736 16.6403C264.246 18.1129 265.001 19.9994 265.001 22.2262V34.4564H261.829V23.0564C261.829 21.472 261.301 20.1494 260.207 19.055C259.113 17.9607 257.792 17.4325 256.167 17.4325C254.431 17.4325 252.958 17.9987 251.788 19.0931C250.617 20.1874 250.013 21.5078 250.013 23.1325V34.4564H246.842V6.14673H246.844Z" fill="#050617"/>
<path fill-rule="evenodd" clip-rule="evenodd" d="M265.207 6.72644V7.15388H267.27V11.8692H267.726V7.15388H269.792V6.72644H265.207ZM270.66 6.72644V11.8692H271.124V7.61042L273.18 11.1911H273.478L275.543 7.6037V11.8692H276V6.72644H275.543L273.335 10.5667L271.126 6.72644H270.66Z" fill="#050617"/>
<path d="M29.7634 21.1527C27.084 32.7481 17.9133 39.1465 15.5263 40.6449C15.1757 40.8644 14.7329 40.8675 14.3785 40.648C11.8821 39.1155 2.0305 32.2952 0.094001 19.1657V19.1642C-0.183639 16.5056 0.163799 14.0121 1.00292 12.2206C2.58035 8.84147 5.59949 6.50083 9.2786 5.79119C11.8301 5.30413 14.3785 5.67253 16.6019 6.81027C16.6019 6.81027 16.6004 6.81027 16.5957 6.80872C14.0132 6.40155 11.3811 7.12205 9.33444 8.90584C6.43551 11.4295 5.53512 15.2654 6.98458 18.9176C8.24715 22.1005 10.8754 24.6761 14.1924 25.9845C17.5225 27.2975 21.2086 27.2145 24.3022 25.7526C25.4515 25.2074 26.4767 24.5582 27.3748 23.8082C27.979 23.3034 28.5567 22.7124 29.0662 22.0896C29.316 21.7825 29.5517 21.4699 29.7642 21.1527H29.7634Z" fill="url(#paint0_linear_189_4536)"/>
<path d="M30.5004 14.2315C30.502 14.2362 30.5004 14.2416 30.5004 14.2447C30.4679 15.7935 30.1127 17.3268 29.4294 18.8089C27.8667 22.1966 24.8623 24.555 21.1879 25.2802C18.6379 25.7851 16.0895 25.4275 13.8614 24.3045C13.8614 24.3045 13.8715 24.3061 13.8909 24.3076C14.5904 24.4131 15.2931 24.4341 15.988 24.3728C17.8446 24.2138 19.6368 23.47 21.115 22.1686C23.9992 19.6287 24.8786 15.7865 23.4098 12.1445C22.1309 8.96936 19.4887 6.41001 16.1632 5.11482C12.8246 3.82119 9.14002 3.92822 6.05342 5.40566C3.76328 6.50463 1.96948 8.02395 0.689075 9.94735C0.872101 9.46882 1.07994 8.99961 1.30872 8.54358C1.94466 7.26933 2.74811 6.09436 3.70278 5.0458C3.70589 5.04425 3.70744 5.04115 3.70899 5.0396C4.59852 4.06394 5.61757 3.19609 6.75372 2.46241C9.3308 0.797277 12.2546 0 15.1581 0C20.1308 0 25.0392 2.33909 28.0358 6.64811C28.315 7.04907 28.5701 7.45469 28.8005 7.86419C28.8331 7.91925 28.8641 7.97277 28.8912 8.02783C28.9269 8.08988 28.961 8.15425 28.9951 8.21784C29.1301 8.46913 29.2565 8.72584 29.372 8.98255C30.1608 10.7082 30.5392 12.4788 30.502 14.2315H30.5004Z" fill="url(#paint1_linear_189_4536)"/>
<path d="M29.0654 22.0888C22.7433 30.2935 11.865 29.7219 7.40955 23.9207C1.09674 15.7013 7.70348 5.17225 16.5957 6.80946C14.0132 6.40229 11.381 7.12279 9.33442 8.90658C6.43549 11.4303 5.5351 15.2662 6.98456 18.9183C8.24712 22.1012 10.8754 24.6768 14.1923 25.9852C17.5225 27.2982 21.2086 27.2153 24.3021 25.7533C25.4515 25.2081 26.4767 24.559 27.3748 23.809C27.9789 23.3041 28.5567 22.7131 29.0662 22.0903L29.0654 22.0888Z" fill="url(#paint2_linear_189_4536)"/>
<path d="M15.987 24.3728C17.8436 24.2138 19.6359 23.4701 21.114 22.1687C23.9982 19.6287 24.8777 15.7866 23.4088 12.1446C22.13 8.96941 19.4877 6.41006 16.1623 5.11487C12.8236 3.82124 9.13906 3.92827 6.05245 5.40571C3.76231 6.50468 1.96851 8.024 0.688112 9.94739C0.837789 9.48671 2.0926 7.73549 2.43383 7.31669C7.22738 1.43173 20.3711 1.44569 24.3511 10.0916C28.7111 19.5644 20.2516 24.258 15.9878 24.3736L15.987 24.3728Z" fill="url(#paint3_linear_189_4536)"/>
<defs>
<linearGradient id="paint0_linear_189_4536" x1="0.000161872" y1="23.1963" x2="29.7589" y2="23.212" gradientUnits="userSpaceOnUse">
<stop stop-color="#2B36D9"/>
<stop offset="0.27" stop-color="#0078FE"/>
<stop offset="1" stop-color="#6CEFEF"/>
</linearGradient>
<linearGradient id="paint1_linear_189_4536" x1="27.6758" y1="21.4264" x2="0.705593" y2="-5.56406" gradientUnits="userSpaceOnUse">
<stop stop-color="#6CEFEF"/>
<stop offset="0.38557" stop-color="#0179FF"/>
<stop offset="1" stop-color="#2B36D9"/>
</linearGradient>
<linearGradient id="paint2_linear_189_4536" x1="7.26065" y1="17.5331" x2="29.7968" y2="17.3245" gradientUnits="userSpaceOnUse">
<stop stop-color="#0078FE"/>
<stop offset="0.79" stop-color="#6CEFEF"/>
</linearGradient>
<linearGradient id="paint3_linear_189_4536" x1="18.5249" y1="13.3915" x2="13.3463" y2="-0.310184" gradientUnits="userSpaceOnUse">
<stop stop-color="#0078FE"/>
<stop offset="1" stop-color="#6CEFEF"/>
</linearGradient>
</defs>
</svg>
