<?xml version="1.0" encoding="UTF-8"?>
<svg id="Layer_1" data-name="Layer 1" xmlns="http://www.w3.org/2000/svg" version="1.1" xmlns:xlink="http://www.w3.org/1999/xlink" viewBox="0 0 1852 538">
  <defs>
    <style>
      .cls-1 {
        fill: url(#linear-gradient);
      }

      .cls-1, .cls-2, .cls-3, .cls-4, .cls-5 {
        stroke-width: 0px;
      }

      .cls-2 {
        fill: url(#linear-gradient-2);
      }

      .cls-3 {
        fill: url(#linear-gradient-3);
      }

      .cls-4 {
        fill: #050938;
      }

      .cls-5 {
        fill: url(#linear-gradient-4);
      }
    </style>
    <linearGradient id="linear-gradient" x1="214.52" y1="273.99" x2="374.98" y2="273.91" gradientTransform="translate(0 558) scale(1 -1)" gradientUnits="userSpaceOnUse">
      <stop offset="0" stop-color="#2b36d9"/>
      <stop offset=".27" stop-color="#0078fe"/>
      <stop offset="1" stop-color="#6cefef"/>
    </linearGradient>
    <linearGradient id="linear-gradient-2" x1="362.07" y1="281.85" x2="216.69" y2="427.34" gradientTransform="translate(0 558) scale(1 -1)" gradientUnits="userSpaceOnUse">
      <stop offset="0" stop-color="#6cefef"/>
      <stop offset=".39" stop-color="#0179ff"/>
      <stop offset="1" stop-color="#2b36d9"/>
    </linearGradient>
    <linearGradient id="linear-gradient-3" x1="253.67" y1="304.48" x2="375.16" y2="305.61" gradientTransform="translate(0 558) scale(1 -1)" gradientUnits="userSpaceOnUse">
      <stop offset="0" stop-color="#0078fe"/>
      <stop offset=".79" stop-color="#6cefef"/>
    </linearGradient>
    <linearGradient id="linear-gradient-4" x1="292.18" y1="318.41" x2="264.26" y2="392.28" gradientTransform="translate(0 558) scale(1 -1)" gradientUnits="userSpaceOnUse">
      <stop offset="0" stop-color="#0078fe"/>
      <stop offset="1" stop-color="#6cefef"/>
    </linearGradient>
  </defs>
  <g>
    <path class="cls-4" d="M495.97,342.54l-57.2-138.08h32.74l37.48,93.3,1.77-4.93,35.51-88.37h32.55l-57.01,138.08h-25.84Z"/>
    <path class="cls-4" d="M584.93,214.53c0-5.33,1.78-9.67,5.13-13.02,3.55-3.35,7.89-5.13,13.22-5.13s9.67,1.78,13.02,5.13c3.55,3.35,5.33,7.69,5.33,13.02s-1.77,9.67-5.33,13.02c-3.35,3.35-7.69,5.13-13.02,5.13s-9.67-1.77-13.22-5.13c-3.35-3.35-5.13-7.69-5.13-13.02ZM588.48,342.54v-102.57h29.59v102.57h-29.59Z"/>
    <path class="cls-4" d="M687.89,269.76c-1.77-5.72-6.9-8.68-15.39-8.68-7.69,0-11.64,2.17-11.64,6.71,0,2.56,2.76,4.93,8.09,6.9l18.34,5.92c20.71,6.51,29.19,15.98,29.19,31.56,0,21.5-16.77,32.94-42.21,32.94s-41.23-11.24-44.18-30.77l27.22-3.75c1.97,6.9,7.89,10.26,17.56,10.26,7.89,0,13.41-2.76,13.41-7.5,0-3.35-3.35-5.92-10.26-7.89l-18.74-5.52c-19.13-5.33-27.02-14.4-27.02-29.59,0-22.68,16.57-32.94,41.62-32.94s38.46,10.45,41.03,28.01l-27.02,4.34Z"/>
    <path class="cls-4" d="M725.77,214.53c0-5.33,1.78-9.67,5.13-13.02,3.55-3.35,7.89-5.13,13.22-5.13s9.67,1.78,13.02,5.13c3.55,3.35,5.33,7.69,5.33,13.02s-1.77,9.67-5.33,13.02c-3.35,3.35-7.69,5.13-13.02,5.13s-9.67-1.77-13.22-5.13c-3.35-3.35-5.13-7.69-5.13-13.02ZM729.32,342.54v-102.57h29.59v102.57h-29.59Z"/>
    <path class="cls-4" d="M768.77,239.97h14v-19.92h29.59v19.92h23.28v25.64h-23.28v38.46c0,6.31,4.73,10.85,11.24,10.85h12.03v27.62h-16.96c-10.06,0-18.74-3.16-25.64-9.27-6.9-6.31-10.26-14.2-10.26-23.47v-44.18h-14v-25.64Z"/>
    <path class="cls-4" d="M844.91,291.26c0-15.19,5.13-28.01,15.58-38.27,10.45-10.45,23.67-15.58,39.25-15.58s28.6,5.13,39.06,15.58c10.45,10.26,15.78,23.08,15.78,38.27s-5.33,28.01-15.78,38.46c-10.45,10.26-23.47,15.39-39.06,15.39s-28.8-5.13-39.25-15.39c-10.45-10.45-15.58-23.28-15.58-38.46ZM916.71,308.81c4.73-4.93,7.1-10.65,7.1-17.56s-2.37-12.62-7.1-17.36c-4.54-4.93-10.26-7.3-16.96-7.3s-12.62,2.37-17.16,7.1c-4.54,4.73-6.9,10.65-6.9,17.56s2.37,12.82,6.9,17.56c4.54,4.73,10.26,7.1,17.16,7.1s12.43-2.37,16.96-7.1Z"/>
    <path class="cls-4" d="M997.38,250.62c6.9-8.88,17.36-13.22,31.36-13.22v31.56c-2.76-1.78-6.31-2.76-10.65-2.76-11.83,0-20.71,9.07-20.71,21.11v55.23h-29.59v-102.57h29.59v10.65Z"/>
    <path class="cls-4" d="M1108.83,204.47c12.82,0,23.47,4.14,31.95,12.23,8.48,8.09,12.82,18.34,12.82,30.38,0,18.74-11.44,33.93-28.8,40.04l33.93,55.43h-19.92l-32.35-52.86h-42.41v52.86h-17.75v-138.08h62.53ZM1064.05,221.03v52.07h44.78c7.5,0,13.81-2.56,18.74-7.5,4.93-4.93,7.5-11.24,7.5-18.54,0-14.99-11.24-26.04-26.23-26.04h-44.78Z"/>
    <path class="cls-4" d="M1187.54,296.98c1.18,9.27,5.33,16.96,12.23,23.08s15.39,9.07,25.25,9.07c13.02,0,23.08-4.93,30.38-14.79l16.17,5.13c-9.47,15.58-26.63,25.25-46.55,25.25-15.58,0-28.6-5.13-39.06-15.19-10.45-10.26-15.58-23.08-15.58-38.27s5.13-28.01,15.19-38.07c10.06-10.26,22.68-15.39,37.67-15.39s27.62,5.13,37.67,15.39c10.06,10.06,15.19,22.88,15.19,38.07,0,1.18-.2,3.16-.39,5.72h-88.17ZM1258.94,283.56c-1.58-8.88-5.72-16.17-12.43-21.89-6.71-5.72-14.6-8.48-23.67-8.48s-16.57,2.76-23.08,8.48-10.45,13.02-12.03,21.89h71.21Z"/>
    <path class="cls-4" d="M1379.86,254.57v-14.6h16.57v102.57h-16.57v-14.6c-9.67,11.24-22.29,16.77-37.48,16.77-14.4,0-26.43-5.13-36.1-15.19-9.67-10.26-14.4-23.08-14.4-38.27s4.73-28.01,14.4-38.07c9.67-10.26,21.7-15.39,36.1-15.39,15.19,0,27.81,5.52,37.48,16.77ZM1319.1,265.02c-6.71,6.9-10.06,15.78-10.06,26.23s3.35,19.33,10.06,26.43c6.9,6.9,15.19,10.45,25.05,10.45s18.34-3.55,25.05-10.45c6.9-7.1,10.26-15.98,10.26-26.43s-3.35-19.33-10.26-26.23c-6.71-7.1-14.99-10.65-25.05-10.65s-18.15,3.55-25.05,10.65Z"/>
    <path class="cls-4" d="M1504.91,273.7c-6.12-11.83-18.15-19.33-32.35-19.33-10.26,0-18.94,3.55-25.84,10.65-6.9,6.9-10.45,15.78-10.45,26.23s3.55,19.33,10.45,26.43c6.9,6.9,15.58,10.45,25.84,10.45,14.2,0,26.23-7.5,32.35-19.33l16.57,4.93c-8.48,18.94-26.83,30.97-48.92,30.97-15.19,0-28.01-5.13-38.27-15.19-10.06-10.26-15.19-23.08-15.19-38.27s5.13-28.01,15.19-38.07c10.26-10.26,23.08-15.39,38.27-15.39,22.09,0,40.44,12.03,48.92,30.97l-16.57,4.93Z"/>
    <path class="cls-4" d="M1542.59,194.6h16.57v62.53c8.09-12.82,20.32-19.33,36.69-19.33,12.03,0,21.89,3.94,29.78,11.64,7.89,7.69,11.83,17.56,11.83,29.19v63.91h-16.57v-59.57c0-8.28-2.76-15.19-8.48-20.91-5.72-5.72-12.62-8.48-21.11-8.48-9.07,0-16.77,2.96-22.88,8.68-6.12,5.72-9.27,12.62-9.27,21.11v59.18h-16.57v-147.94Z"/>
  </g>
  <g>
    <path class="cls-1" d="M374.98,273.03c-14.44,62.51-63.88,97-76.75,105.08-1.89,1.18-4.28,1.2-6.19.02-13.46-8.26-66.56-45.03-77-115.81h0c-1.5-14.34.38-27.78,4.9-37.44,8.5-18.22,24.78-30.83,44.61-34.66,13.75-2.63,27.49-.64,39.48,5.49,0,0,0,0-.03,0-13.92-2.19-28.11,1.69-39.14,11.3-15.63,13.6-20.48,34.28-12.67,53.97,6.81,17.16,20.97,31.04,38.85,38.1,17.95,7.08,37.82,6.63,54.5-1.25,6.2-2.94,11.72-6.44,16.56-10.48,3.26-2.72,6.37-5.91,9.12-9.26,1.35-1.66,2.62-3.34,3.76-5.05h0Z"/>
    <path class="cls-2" d="M378.95,235.72s0,.05,0,.07c-.18,8.35-2.09,16.61-5.77,24.6-8.42,18.26-24.62,30.98-44.43,34.89-13.75,2.72-27.48.79-39.49-5.26,0,0,.05,0,.16.02,3.77.57,7.56.68,11.3.35,10.01-.86,19.67-4.87,27.64-11.88,15.55-13.69,20.29-34.4,12.37-54.04-6.89-17.12-21.14-30.91-39.06-37.89-18-6.97-37.86-6.4-54.5,1.57-12.35,5.92-22.02,14.11-28.92,24.48.99-2.58,2.11-5.11,3.34-7.57,3.43-6.87,7.76-13.2,12.91-18.86.02,0,.03-.03.03-.03,4.8-5.26,10.29-9.94,16.41-13.89,13.89-8.98,29.65-13.27,45.31-13.27,26.81,0,53.27,12.61,69.42,35.84,1.51,2.16,2.88,4.35,4.12,6.56.18.3.34.59.49.88.19.33.38.68.56,1.02.73,1.35,1.41,2.74,2.03,4.12,4.25,9.3,6.29,18.85,6.09,28.3h0Z"/>
    <path class="cls-3" d="M371.22,278.07c-34.08,44.23-92.72,41.15-116.74,9.88-34.03-44.31,1.58-101.07,49.52-92.24-13.92-2.19-28.11,1.69-39.14,11.3-15.63,13.6-20.48,34.28-12.67,53.97,6.81,17.16,20.97,31.04,38.86,38.1,17.95,7.08,37.82,6.63,54.5-1.25,6.2-2.94,11.72-6.44,16.56-10.48,3.26-2.72,6.37-5.91,9.12-9.26h0Z"/>
    <path class="cls-5" d="M300.71,290.39c10.01-.86,19.67-4.87,27.64-11.88,15.55-13.69,20.29-34.4,12.37-54.04-6.89-17.12-21.14-30.91-39.06-37.89-18-6.97-37.86-6.4-54.5,1.57-12.35,5.92-22.02,14.11-28.92,24.48.81-2.48,7.57-11.92,9.41-14.18,25.84-31.72,96.69-31.65,118.15,14.96,23.5,51.06-22.1,76.37-45.08,76.99h0Z"/>
  </g>
</svg>