<svg width="337" height="61" viewBox="0 0 337 61" fill="none" xmlns="http://www.w3.org/2000/svg">
<path fill-rule="evenodd" clip-rule="evenodd" d="M294.576 4.47852C294.576 6.95194 292.571 8.95705 290.097 8.95705C287.624 8.95705 285.619 6.95194 285.619 4.47852C285.619 2.0051 287.624 0 290.097 0C292.571 0 294.576 2.0051 294.576 4.47852ZM282.604 32.1727C282.603 33.4611 281.558 34.5049 280.27 34.5049C278.981 34.5049 277.936 33.4602 277.936 32.1707V15.955C277.936 12.7606 280.392 10.3039 283.464 10.3039H289.606H290.588H296.73C299.801 10.3039 302.259 12.7613 302.259 15.955V32.1707C302.259 33.4601 301.213 34.5049 299.924 34.5049C298.636 34.5049 297.592 33.4611 297.591 32.1727C297.59 32.1723 297.588 17.9211 297.588 17.9211C297.588 17.7867 297.479 17.6783 297.345 17.6783H296.85C296.716 17.6783 296.608 17.7871 296.608 17.9211V57.9076C296.608 59.5696 295.26 60.9171 293.598 60.9171C291.936 60.9171 290.588 59.5697 290.588 57.9076V34.3802C290.588 34.209 290.509 34.1373 290.34 34.1373H289.854C289.685 34.1373 289.606 34.2085 289.606 34.3802V57.9076C289.606 59.5696 288.258 60.9171 286.596 60.9171C284.934 60.9171 283.587 59.5697 283.587 57.9076V17.9211C283.587 17.7867 283.478 17.6783 283.344 17.6783H282.85C282.715 17.6783 282.607 17.7871 282.607 17.9211C282.607 17.9211 282.605 32.1723 282.604 32.1727ZM315.011 34.5049C316.299 34.5049 317.344 33.4611 317.345 32.1727C317.346 32.1723 317.348 17.9211 317.348 17.9211C317.348 17.7871 317.456 17.6783 317.591 17.6783H318.085C318.219 17.6783 318.328 17.7867 318.328 17.9211V57.9076C318.328 59.5697 319.675 60.9171 321.337 60.9171C323 60.9171 324.347 59.5696 324.347 57.9076V34.3802C324.347 34.2085 324.427 34.1373 324.596 34.1373H325.081C325.25 34.1373 325.33 34.209 325.33 34.3802V57.9076C325.33 59.5697 326.677 60.9171 328.339 60.9171C330.001 60.9171 331.349 59.5696 331.349 57.9076V17.9211C331.349 17.7871 331.457 17.6783 331.592 17.6783H332.086C332.22 17.6783 332.329 17.7867 332.329 17.9211C332.329 17.9211 332.331 32.1723 332.332 32.1727C332.333 33.4611 333.377 34.5049 334.666 34.5049C335.954 34.5049 337 33.4601 337 32.1707V15.955C337 12.7613 334.542 10.3039 331.472 10.3039H325.329H324.347H318.205C315.133 10.3039 312.677 12.7606 312.677 15.955V32.1707C312.677 33.4602 313.722 34.5049 315.011 34.5049ZM329.317 4.47852C329.317 6.95194 327.312 8.95705 324.839 8.95705C322.365 8.95705 320.36 6.95194 320.36 4.47852C320.36 2.0051 322.365 0 324.839 0C327.312 0 329.317 2.0051 329.317 4.47852Z" fill="#75778B"/>
<path fill-rule="evenodd" clip-rule="evenodd" d="M16.6404 4.47852C16.6404 6.95194 14.6353 8.95705 12.1619 8.95705C9.68849 8.95705 7.68339 6.95194 7.68339 4.47852C7.68339 2.0051 9.68849 0 12.1619 0C14.6353 0 16.6404 2.0051 16.6404 4.47852ZM4.66816 32.1727C4.66761 33.4611 3.62276 34.5049 2.33441 34.5049C1.04507 34.5049 0.000109489 33.4602 0 32.1707V15.955C0 12.7606 2.4567 10.3039 5.52808 10.3039H11.6702H12.6527H18.7949C21.8658 10.3039 24.323 12.7613 24.323 15.955V32.1707C24.323 33.4601 23.2776 34.5049 21.9888 34.5049C20.7006 34.5049 19.6562 33.4611 19.6551 32.1727C19.6542 32.1723 19.652 17.9211 19.652 17.9211C19.652 17.7867 19.5432 17.6783 19.409 17.6783H18.9148C18.7803 17.6783 18.672 17.7871 18.672 17.9211V57.9076C18.672 59.5696 17.3245 60.9171 15.6625 60.9171C14.0004 60.9171 12.6528 59.5697 12.6528 57.9076V34.3802C12.6528 34.209 12.5738 34.1373 12.4042 34.1373H11.9189C11.7499 34.1373 11.6703 34.2085 11.6703 34.3802V57.9076C11.6703 59.5696 10.3229 60.9171 8.66077 60.9171C6.99873 60.9171 5.65125 59.5697 5.65125 57.9076V17.9211C5.65125 17.7867 5.54231 17.6783 5.4083 17.6783H4.91418C4.77962 17.6783 4.67122 17.7871 4.67122 17.9211C4.67122 17.9211 4.66914 32.1723 4.66816 32.1727ZM210.786 34.5049C212.074 34.5049 213.119 33.4611 213.119 32.1727C213.12 32.1723 213.122 17.9211 213.122 17.9211C213.122 17.7871 213.231 17.6783 213.365 17.6783H213.86C213.994 17.6783 214.102 17.7867 214.102 17.9211V57.9076C214.102 59.5697 215.45 60.9171 217.112 60.9171C218.774 60.9171 220.121 59.5696 220.121 57.9076V34.3802C220.121 34.2085 220.201 34.1373 220.37 34.1373H220.855C221.025 34.1373 221.104 34.209 221.104 34.3802V57.9076C221.104 59.5697 222.452 60.9171 224.114 60.9171C225.776 60.9171 227.123 59.5696 227.123 57.9076V17.9211C227.123 17.7871 227.231 17.6783 227.366 17.6783H227.86C227.994 17.6783 228.103 17.7867 228.103 17.9211C228.103 17.9211 228.105 32.1723 228.106 32.1727C228.107 33.4611 229.152 34.5049 230.44 34.5049C231.729 34.5049 232.774 33.4601 232.774 32.1707V15.955C232.774 12.7613 230.317 10.3039 227.246 10.3039H221.104H220.121H213.979C210.908 10.3039 208.451 12.7606 208.451 15.955V32.1707C208.451 33.4602 209.496 34.5049 210.786 34.5049ZM225.092 4.47852C225.092 6.95194 223.087 8.95705 220.613 8.95705C218.14 8.95705 216.135 6.95194 216.135 4.47852C216.135 2.0051 218.14 0 220.613 0C223.087 0 225.092 2.0051 225.092 4.47852ZM37.0765 34.5049C38.3649 34.5049 39.4097 33.4611 39.4103 32.1727C39.4113 32.1723 39.4134 17.9211 39.4134 17.9211C39.4134 17.7871 39.5218 17.6783 39.6563 17.6783H40.1504C40.2844 17.6783 40.3934 17.7867 40.3934 17.9211V57.9076C40.3934 59.5697 41.7409 60.9171 43.4029 60.9171C45.065 60.9171 46.4124 59.5696 46.4124 57.9076V34.3802C46.4124 34.2085 46.492 34.1373 46.6611 34.1373H47.1463C47.3159 34.1373 47.395 34.209 47.395 34.3802V57.9076C47.395 59.5697 48.7426 60.9171 50.4046 60.9171C52.0666 60.9171 53.4141 59.5696 53.4141 57.9076V17.9211C53.4141 17.7871 53.5224 17.6783 53.6569 17.6783H54.1512C54.2853 17.6783 54.3941 17.7867 54.3941 17.9211C54.3941 17.9211 54.3963 32.1723 54.3972 32.1727C54.3983 33.4611 55.4427 34.5049 56.731 34.5049C58.0197 34.5049 59.0651 33.4601 59.0651 32.1707V15.955C59.0651 12.7613 56.6079 10.3039 53.5371 10.3039H47.3949H46.4123H40.2702C37.1988 10.3039 34.7421 12.7606 34.7421 15.955V32.1707C34.7422 33.4602 35.7872 34.5049 37.0765 34.5049ZM51.3826 4.47852C51.3826 6.95194 49.3775 8.95705 46.904 8.95705C44.4306 8.95705 42.4255 6.95194 42.4255 4.47852C42.4255 2.0051 44.4306 0 46.904 0C49.3775 0 51.3826 2.0051 51.3826 4.47852ZM245.528 34.5049C246.816 34.5049 247.861 33.4611 247.861 32.1727C247.862 32.1723 247.865 17.9211 247.865 17.9211C247.865 17.7871 247.973 17.6783 248.108 17.6783H248.602C248.736 17.6783 248.845 17.7867 248.845 17.9211V57.9076C248.845 59.5697 250.192 60.9171 251.854 60.9171C253.516 60.9171 254.864 59.5696 254.864 57.9076V34.3802C254.864 34.2085 254.943 34.1373 255.112 34.1373H255.598C255.767 34.1373 255.846 34.209 255.846 34.3802V57.9076C255.846 59.5697 257.194 60.9171 258.856 60.9171C260.518 60.9171 261.865 59.5696 261.865 57.9076V17.9211C261.865 17.7871 261.974 17.6783 262.108 17.6783H262.602C262.737 17.6783 262.845 17.7867 262.845 17.9211C262.845 17.9211 262.848 32.1723 262.848 32.1727C262.85 33.4611 263.894 34.5049 265.182 34.5049C266.471 34.5049 267.516 33.4601 267.516 32.1707V15.955C267.516 12.7613 265.059 10.3039 261.988 10.3039H255.846H254.864H248.721C245.65 10.3039 243.193 12.7606 243.193 15.955V32.1707C243.193 33.4602 244.238 34.5049 245.528 34.5049ZM259.834 4.47852C259.834 6.95194 257.829 8.95705 255.355 8.95705C252.882 8.95705 250.877 6.95194 250.877 4.47852C250.877 2.0051 252.882 0 255.355 0C257.829 0 259.834 2.0051 259.834 4.47852ZM71.8178 34.5049C73.1062 34.5049 74.151 33.4611 74.1516 32.1727C74.1525 32.1723 74.1546 17.9211 74.1546 17.9211C74.1546 17.7871 74.263 17.6783 74.3976 17.6783H74.8917C75.0257 17.6783 75.1347 17.7867 75.1347 17.9211V57.9076C75.1347 59.5697 76.4821 60.9171 78.1442 60.9171C79.8063 60.9171 81.1537 59.5696 81.1537 57.9076V34.3802C81.1537 34.2085 81.2333 34.1373 81.4023 34.1373H81.8876C82.0572 34.1373 82.1362 34.209 82.1362 34.3802V57.9076C82.1362 59.5697 83.4838 60.9171 85.1459 60.9171C86.8079 60.9171 88.1554 59.5696 88.1554 57.9076V17.9211C88.1554 17.7871 88.2637 17.6783 88.3982 17.6783H88.8925C89.0266 17.6783 89.1354 17.7867 89.1354 17.9211C89.1354 17.9211 89.1376 32.1723 89.1385 32.1727C89.1396 33.4611 90.184 34.5049 91.4722 34.5049C92.761 34.5049 93.8064 33.4601 93.8064 32.1707V15.955C93.8064 12.7613 91.3492 10.3039 88.2783 10.3039H82.1361H81.1536H75.0115C71.9401 10.3039 69.4834 12.7606 69.4834 15.955V32.1707C69.4835 33.4602 70.5285 34.5049 71.8178 34.5049ZM86.1238 4.47852C86.1238 6.95194 84.1187 8.95705 81.6453 8.95705C79.1719 8.95705 77.1668 6.95194 77.1668 4.47852C77.1668 2.0051 79.1719 0 81.6453 0C84.1187 0 86.1238 2.0051 86.1238 4.47852ZM106.56 34.5049C107.848 34.5049 108.893 33.4611 108.894 32.1727C108.895 32.1723 108.897 17.9211 108.897 17.9211C108.897 17.7871 109.005 17.6783 109.14 17.6783H109.634C109.768 17.6783 109.877 17.7867 109.877 17.9211V57.9076C109.877 59.5697 111.224 60.9171 112.886 60.9171C114.548 60.9171 115.896 59.5696 115.896 57.9076V34.3802C115.896 34.2085 115.975 34.1373 116.144 34.1373H116.63C116.799 34.1373 116.878 34.209 116.878 34.3802V57.9076C116.878 59.5697 118.226 60.9171 119.888 60.9171C121.55 60.9171 122.898 59.5696 122.898 57.9076V17.9211C122.898 17.7871 123.006 17.6783 123.14 17.6783H123.635C123.769 17.6783 123.878 17.7867 123.878 17.9211C123.878 17.9211 123.88 32.1723 123.881 32.1727C123.882 33.4611 124.926 34.5049 126.214 34.5049C127.503 34.5049 128.549 33.4601 128.549 32.1707V15.955C128.549 12.7613 126.091 10.3039 123.02 10.3039H116.878H115.896H109.754C106.682 10.3039 104.226 12.7606 104.226 15.955V32.1707C104.226 33.4602 105.271 34.5049 106.56 34.5049ZM120.866 4.47852C120.866 6.95194 118.861 8.95705 116.387 8.95705C113.914 8.95705 111.909 6.95194 111.909 4.47852C111.909 2.0051 113.914 0 116.387 0C118.861 0 120.866 2.0051 120.866 4.47852ZM141.302 34.5049C142.591 34.5049 143.635 33.4611 143.636 32.1727C143.637 32.1723 143.639 17.9211 143.639 17.9211C143.639 17.7871 143.747 17.6783 143.882 17.6783H144.376C144.51 17.6783 144.619 17.7867 144.619 17.9211V57.9076C144.619 59.5697 145.967 60.9171 147.629 60.9171C149.291 60.9171 150.638 59.5696 150.638 57.9076V34.3802C150.638 34.2085 150.718 34.1373 150.887 34.1373H151.372C151.542 34.1373 151.621 34.209 151.621 34.3802V57.9076C151.621 59.5697 152.968 60.9171 154.63 60.9171C156.292 60.9171 157.64 59.5696 157.64 57.9076V17.9211C157.64 17.7871 157.748 17.6783 157.883 17.6783H158.377C158.511 17.6783 158.62 17.7867 158.62 17.9211C158.62 17.9211 158.622 32.1723 158.623 32.1727C158.624 33.4611 159.668 34.5049 160.957 34.5049C162.245 34.5049 163.291 33.4601 163.291 32.1707V15.955C163.291 12.7613 160.834 10.3039 157.763 10.3039H151.621H150.638H144.496C141.424 10.3039 138.968 12.7606 138.968 15.955V32.1707C138.968 33.4602 140.013 34.5049 141.302 34.5049ZM155.608 4.47852C155.608 6.95194 153.603 8.95705 151.13 8.95705C148.656 8.95705 146.651 6.95194 146.651 4.47852C146.651 2.0051 148.656 0 151.13 0C153.603 0 155.608 2.0051 155.608 4.47852ZM176.043 34.5049C177.332 34.5049 178.377 33.4611 178.377 32.1727C178.378 32.1723 178.38 17.9211 178.38 17.9211C178.38 17.7871 178.489 17.6783 178.623 17.6783H179.117C179.251 17.6783 179.36 17.7867 179.36 17.9211V57.9076C179.36 59.5697 180.708 60.9171 182.37 60.9171C184.032 60.9171 185.379 59.5696 185.379 57.9076V34.3802C185.379 34.2085 185.459 34.1373 185.628 34.1373H186.113C186.283 34.1373 186.362 34.209 186.362 34.3802V57.9076C186.362 59.5697 187.709 60.9171 189.371 60.9171C191.033 60.9171 192.381 59.5696 192.381 57.9076V17.9211C192.381 17.7871 192.489 17.6783 192.624 17.6783H193.118C193.252 17.6783 193.361 17.7867 193.361 17.9211C193.361 17.9211 193.363 32.1723 193.364 32.1727C193.365 33.4611 194.41 34.5049 195.698 34.5049C196.987 34.5049 198.032 33.4601 198.032 32.1707V15.955C198.032 12.7613 195.575 10.3039 192.504 10.3039H186.362H185.379H179.237C176.166 10.3039 173.709 12.7606 173.709 15.955V32.1707C173.709 33.4602 174.754 34.5049 176.043 34.5049ZM190.349 4.47852C190.349 6.95194 188.344 8.95705 185.871 8.95705C183.397 8.95705 181.392 6.95194 181.392 4.47852C181.392 2.0051 183.397 0 185.871 0C188.344 0 190.349 2.0051 190.349 4.47852Z" fill="url(#paint0_linear_147_3503)"/>
<defs>
<linearGradient id="paint0_linear_147_3503" x1="0" y1="0" x2="133.346" y2="167.692" gradientUnits="userSpaceOnUse">
<stop stop-color="#6ECAF8"/>
<stop offset="0.315" stop-color="#0179FF"/>
<stop offset="1" stop-color="#2246E2"/>
</linearGradient>
</defs>
</svg>
