<svg width="34" height="34" viewBox="0 0 34 34" fill="none" xmlns="http://www.w3.org/2000/svg">
<g clip-path="url(#clip0_13_1563)">
<path d="M16.296 21.7573C16.6852 22.1463 17.3157 22.1463 17.7047 21.7573L23.9776 15.4845C25.8489 13.6131 25.8489 10.5683 23.9776 8.697C23.071 7.79049 21.8656 7.29125 20.5835 7.29131C19.3014 7.29138 18.0962 7.79075 17.1897 8.6974L17.0003 8.88692L16.8101 8.69674C14.9389 6.82547 11.894 6.82541 10.0224 8.69693C8.14677 10.5726 8.14651 13.6087 10.0225 15.4845L16.296 21.7573ZM13.4163 9.2831C14.1662 9.2831 14.8711 9.57509 15.4014 10.1053L16.2961 11C16.6849 11.3887 17.3159 11.3888 17.7049 10.9999L18.5986 10.1059C19.1288 9.57562 19.8338 9.2835 20.5837 9.2835C23.0661 9.2833 24.3386 12.3062 22.569 14.0758L17.0005 19.6443L11.4314 14.0758C9.68016 12.3249 10.9045 9.2831 13.4163 9.2831Z" fill="#BFC0CC"/>
<path d="M6.05977 26.0118H11.5059L16.2093 32.1512C16.6077 32.6714 17.3925 32.6711 17.7907 32.1512L22.4941 26.0118H27.9402C31.2816 26.0118 34 23.2934 34 19.9521V8.05977C34 4.71841 31.2816 2 27.9402 2H6.05977C2.71841 2 0 4.71841 0 8.05977V19.9521C0 23.2935 2.71841 26.0118 6.05977 26.0118ZM1.99219 8.05977C1.99219 5.8169 3.8169 3.99219 6.05977 3.99219H27.9402C30.1831 3.99219 32.0078 5.8169 32.0078 8.05977V19.9521C32.0078 22.195 30.1831 24.0196 27.9402 24.0196H22.0024C21.6925 24.0196 21.4001 24.1639 21.2117 24.41L17 29.9076L12.7883 24.41C12.5999 24.1639 12.3075 24.0196 11.9976 24.0196H6.05977C3.8169 24.0196 1.99219 22.195 1.99219 19.9521V8.05977Z" fill="#BFC0CC"/>
</g>
<defs>
<clipPath id="clip0_13_1563">
<rect width="34" height="34" fill="white"/>
</clipPath>
</defs>
</svg>
