<svg width="26" height="34" viewBox="0 0 26 34" fill="none" xmlns="http://www.w3.org/2000/svg">
<path d="M24.7973 17.6225C22.5647 27.2829 14.9246 32.6148 12.9354 33.8616C12.6433 34.0441 12.2742 34.0468 11.9794 33.8656C9.89963 32.5877 1.69151 26.9056 0.0782875 15.9673C-0.152946 13.7523 0.136434 11.6739 0.835544 10.1811C2.14992 7.36569 4.6651 5.41576 7.73063 4.82618C9.85636 4.41915 11.9794 4.72611 13.832 5.67403C11.6792 5.33327 9.48314 5.93231 7.77661 7.41978C5.3615 9.52252 4.61101 12.7179 5.81856 15.7618C6.87061 18.4122 9.05989 20.5582 11.8239 21.6481C14.5987 22.7434 17.6696 22.6731 20.247 21.4547C21.2044 21.0017 22.059 20.4608 22.8068 19.8347C23.5573 19.2073 24.2591 18.4203 24.7973 17.6225Z" fill="#BFC0CC"/>
<path d="M25.4111 11.8578C25.4111 11.8578 25.4111 11.8646 25.4111 11.8673C25.3841 13.1573 25.0879 14.4352 24.5187 15.6698C23.2164 18.4919 20.7134 20.4567 17.652 21.0612C15.5276 21.4817 13.4046 21.1843 11.5479 20.2485C13.7007 20.5757 15.8927 19.9645 17.5911 18.4689C19.994 16.354 20.727 13.1533 19.5032 10.1175C18.4376 7.4725 16.2362 5.34001 13.4654 4.26227C10.6838 3.18318 7.61425 3.27243 5.04229 4.50297C3.13427 5.41844 1.64004 6.68414 0.57312 8.28655C1.15594 6.77068 2.00379 5.39004 3.08424 4.20277C3.08694 4.20277 3.08829 4.20007 3.08965 4.19736C3.83068 3.38467 4.67988 2.66257 5.62646 2.05C7.77382 0.663952 10.2092 0 12.6284 0C16.7716 0 20.8608 1.94858 23.3571 5.53879C23.5897 5.87279 23.802 6.21086 23.994 6.55162C24.021 6.5976 24.0467 6.64222 24.0697 6.6882C24.0995 6.74093 24.1279 6.79367 24.1562 6.84641C24.2685 7.05736 24.374 7.26966 24.47 7.48332C25.1272 8.92075 25.4422 10.3961 25.4111 11.8578Z" fill="#BFC0CC"/>
</svg>
