<svg width="147" height="19" viewBox="0 0 147 19" fill="none" xmlns="http://www.w3.org/2000/svg">
<path d="M57.7726 11.3851C56.9284 15.0346 54.0419 17.049 53.2916 17.5208C53.181 17.5894 53.0424 17.5908 52.9304 17.5222C52.1451 17.0392 49.043 14.8932 48.434 10.7594C48.3459 9.92229 48.4564 9.13696 48.7196 8.57281C49.2166 7.50891 50.1671 6.77258 51.3248 6.55001C52.1283 6.39602 52.9304 6.51221 53.6304 6.87058C52.817 6.74179 51.9869 6.96857 51.343 7.52991C50.4303 8.32364 50.1475 9.53172 50.6038 10.681C51.0014 11.6819 51.8287 12.4938 52.873 12.9054C53.9215 13.3198 55.082 13.2932 56.0549 12.8326C56.4161 12.6618 56.7395 12.4574 57.0222 12.2209C57.3064 11.9843 57.571 11.6861 57.774 11.3851H57.7726Z" fill="#050938"/>
<path d="M58.0048 9.20694C58.0048 9.20694 58.0048 9.20974 58.0048 9.21113C57.995 9.69829 57.883 10.1812 57.6675 10.6474C57.1761 11.7141 56.2298 12.456 55.0735 12.6842C54.2714 12.8438 53.4693 12.7304 52.7679 12.3776C53.5813 12.5008 54.41 12.2698 55.0511 11.7057C55.9596 10.9064 56.2354 9.69689 55.7734 8.5504C55.3703 7.55089 54.5388 6.74597 53.4931 6.33861C52.4418 5.93125 51.2827 5.96484 50.3112 6.4296C49.5902 6.77537 49.0261 7.25412 48.6229 7.85886C48.8427 7.28632 49.1633 6.76417 49.572 6.31621C49.572 6.31621 49.5734 6.31621 49.5734 6.31481C49.8534 6.00824 50.174 5.73526 50.5323 5.50289C51.3443 4.97934 52.264 4.72876 53.1781 4.72876C54.7431 4.72876 56.2886 5.46509 57.2321 6.82156C57.3203 6.94755 57.4001 7.07494 57.4729 7.20373C57.4827 7.22052 57.4925 7.23732 57.5009 7.25552C57.5121 7.27512 57.5233 7.29472 57.5331 7.31572C57.5751 7.39551 57.6157 7.4753 57.6521 7.55649C57.8998 8.09964 58.0188 8.65679 58.0076 9.20974L58.0048 9.20694Z" fill="#050938"/>
<path d="M6.84815 17.497L0 0.96875H3.91963L8.4062 12.1369L8.61899 11.5461L12.869 0.96875H16.7648L9.94046 17.497H6.84675H6.84815Z" fill="#050938"/>
<path d="M17.4967 2.17259C17.4967 1.53565 17.7095 1.0149 18.1112 0.614542C18.5368 0.21278 19.0562 0 19.6931 0C20.33 0 20.8494 0.21278 21.2511 0.614542C21.6767 1.0163 21.8881 1.53565 21.8881 2.17259C21.8881 2.80953 21.6753 3.32888 21.2511 3.73065C20.8494 4.13241 20.33 4.34519 19.6931 4.34519C19.0562 4.34519 18.5368 4.13241 18.1112 3.73065C17.7095 3.32888 17.4967 2.80953 17.4967 2.17259ZM17.9223 17.4969V5.21871H21.4639V17.4969H17.9223Z" fill="#050938"/>
<path d="M29.8214 8.78421C29.6086 8.09967 28.9955 7.74551 27.9792 7.74551C27.0581 7.74551 26.5863 8.00588 26.5863 8.54903C26.5863 8.8556 26.9167 9.13977 27.555 9.37495L29.7514 10.0833C32.2306 10.863 33.2455 11.9955 33.2455 13.8615C33.2455 16.4359 31.2381 17.805 28.1934 17.805C25.1487 17.805 23.2588 16.4597 22.9047 14.1219L26.1636 13.6739C26.4001 14.4999 27.1085 14.9016 28.2648 14.9016C29.2097 14.9016 29.8704 14.5713 29.8704 14.0043C29.8704 13.6026 29.4686 13.296 28.6427 13.0594L26.4001 12.3987C24.1099 11.7617 23.165 10.6754 23.165 8.857C23.165 6.14126 25.1487 4.91357 28.1472 4.91357C31.1457 4.91357 32.7513 6.16506 33.0579 8.26626L29.8228 8.78561L29.8214 8.78421Z" fill="#050938"/>
<path d="M34.3556 2.17259C34.3556 1.53565 34.5684 1.0149 34.9701 0.614542C35.3957 0.21278 35.915 0 36.552 0C37.1889 0 37.7083 0.21278 38.11 0.614542C38.5356 1.0163 38.747 1.53565 38.747 2.17259C38.747 2.80953 38.5342 3.32888 38.11 3.73065C37.7083 4.13241 37.1889 4.34519 36.552 4.34519C35.915 4.34519 35.3957 4.13241 34.9701 3.73065C34.5684 3.32888 34.3556 2.80953 34.3556 2.17259ZM34.7811 17.4969V5.21871H38.3228V17.4969H34.7811Z" fill="#050938"/>
<path d="M39.5013 5.21875H41.1784V2.83337H44.7201V5.21875H47.5058V8.28866H44.7201V12.8928C44.7201 13.6488 45.287 14.1919 46.0653 14.1919H47.5058V17.497H45.476C44.2721 17.497 43.2334 17.119 42.4061 16.3869C41.5801 15.631 41.1784 14.6875 41.1784 13.5774V8.28866H39.5013V5.21875Z" fill="#050938"/>
<path d="M63.155 6.49396C63.9809 5.43146 65.2324 4.91211 66.9094 4.91211V8.69035C66.579 8.47757 66.1535 8.35998 65.6341 8.35998C64.2174 8.35998 63.155 9.44628 63.155 10.8867V17.4983H59.6133V5.22008H63.155V6.49536V6.49396Z" fill="#050938"/>
<path d="M76.8429 1.42932C78.3772 1.42932 79.6525 1.92487 80.6674 2.89358C81.6823 3.86229 82.2016 5.08997 82.2016 6.53044C82.2016 8.77303 80.8326 10.5915 78.7538 11.3236L82.8148 17.959H80.4294L76.5574 11.6316H71.4814V17.959H69.3564V1.43072H76.8415L76.8429 1.42932ZM71.4828 3.41293V9.64654H76.8429C77.7402 9.64654 78.4962 9.33997 79.0855 8.74923C79.6749 8.15848 79.9828 7.40396 79.9828 6.52904C79.9828 4.73441 78.6376 3.41293 76.8429 3.41293H71.4828Z" fill="#050938"/>
<path d="M86.2627 12.5022C86.404 13.6122 86.8996 14.5334 87.7269 15.2641C88.5542 15.9948 89.5691 16.3504 90.7492 16.3504C92.3073 16.3504 93.5112 15.7596 94.3847 14.5796L96.3207 15.1941C95.1868 17.0601 93.1332 18.2164 90.7478 18.2164C88.8818 18.2164 87.3237 17.6019 86.0723 16.398C84.8208 15.1703 84.2076 13.6346 84.2076 11.8176C84.2076 10.0006 84.8208 8.46493 86.0261 7.26105C87.23 6.03336 88.7418 5.41882 90.5364 5.41882C92.3311 5.41882 93.8415 6.03336 95.0468 7.26105C96.2507 8.46493 96.8652 10.0006 96.8652 11.8176C96.8652 11.959 96.8414 12.1956 96.8177 12.5022H86.2627ZM94.8102 10.8965C94.6213 9.83401 94.1257 8.96049 93.3222 8.27595C92.5201 7.59142 91.5751 7.26105 90.4888 7.26105C89.4025 7.26105 88.5052 7.59142 87.7269 8.27595C86.9472 8.96049 86.4754 9.83401 86.2864 10.8965H94.8102Z" fill="#050938"/>
<path d="M109.284 7.4263V5.67926H111.267V17.9575H109.284V16.2105C108.127 17.5557 106.615 18.2179 104.797 18.2179C103.074 18.2179 101.633 17.6033 100.476 16.3994C99.3194 15.1718 98.7524 13.6361 98.7524 11.8191C98.7524 10.0021 99.3194 8.4664 100.476 7.26251C101.632 6.03483 103.072 5.42029 104.797 5.42029C106.615 5.42029 108.126 6.08103 109.284 7.4277V7.4263ZM102.011 8.67778C101.208 9.5037 100.807 10.5662 100.807 11.8177C100.807 13.0692 101.209 14.1317 102.011 14.9814C102.837 15.8073 103.83 16.2329 105.01 16.2329C106.19 16.2329 107.206 15.8073 108.008 14.9814C108.834 14.1317 109.236 13.0692 109.236 11.8177C109.236 10.5662 108.834 9.5037 108.008 8.67778C107.206 7.82806 106.214 7.4025 105.01 7.4025C103.806 7.4025 102.837 7.82806 102.011 8.67778Z" fill="#050938"/>
<path d="M124.252 9.71642C123.52 8.29975 122.079 7.40244 120.38 7.40244C119.152 7.40244 118.114 7.82799 117.286 8.67771C116.46 9.50364 116.035 10.5661 116.035 11.8176C116.035 13.0691 116.46 14.1316 117.286 14.9813C118.112 15.8072 119.152 16.2328 120.38 16.2328C122.079 16.2328 123.52 15.3355 124.252 13.9188L126.236 14.5096C125.221 16.7759 123.024 18.2164 120.38 18.2164C118.562 18.2164 117.027 17.6019 115.8 16.398C114.596 15.1703 113.981 13.6346 113.981 11.8176C113.981 10.0006 114.594 8.46493 115.8 7.26105C117.005 6.05716 118.562 5.41882 120.38 5.41882C123.024 5.41882 125.221 6.85929 126.236 9.12567L124.252 9.71642Z" fill="#050938"/>
<path d="M128.762 0.247681H130.746V7.73277C131.715 6.19852 133.178 5.41879 135.137 5.41879C136.578 5.41879 137.758 5.89055 138.703 6.81166C139.648 7.73277 140.12 8.91286 140.12 10.3057V17.956H138.136V10.8251C138.136 9.83397 137.806 9.00665 137.121 8.32212C136.436 7.63758 135.611 7.30721 134.594 7.30721C133.508 7.30721 132.587 7.66138 131.855 8.34591C131.123 9.03045 130.745 9.85637 130.745 10.8727V17.956H128.761V0.247681H128.762Z" fill="#050938"/>
<path fill-rule="evenodd" clip-rule="evenodd" d="M143.66 0.610352V3.82725H143.95V1.1633L145.236 3.40309H145.422L146.714 1.1591V3.82725H147V0.610352H146.714L145.333 3.01252L143.951 0.610352H143.66ZM140.248 0.610383V0.877757H141.539V3.82728H141.825V0.877757H143.117V0.610383H140.248Z" fill="#050938"/>
</svg>
