<svg width="24" height="24" viewBox="0 0 24 24" fill="none" xmlns="http://www.w3.org/2000/svg">
<path d="M20.345 3.49067C18.094 1.23964 15.1012 0 11.9178 0C8.73447 0 5.7416 1.23964 3.49067 3.49062C1.23964 5.7416 0 8.73447 0 11.9178C0 15.1012 1.23964 18.094 3.49067 20.345C5.7416 22.596 8.73447 23.8356 11.9178 23.8356C15.1012 23.8356 18.094 22.596 20.345 20.3449C22.596 18.094 23.8357 15.1012 23.8357 11.9178C23.8357 8.73442 22.596 5.7416 20.345 3.49067ZM4.47924 4.47924C5.52722 3.43127 6.7575 2.63193 8.09845 2.1102C7.74128 2.5561 7.40707 3.06861 7.10079 3.64504C6.74507 4.31449 6.43814 5.04972 6.18252 5.83504C5.29696 5.68806 4.47645 5.50734 3.74341 5.29524C3.97315 5.01285 4.21826 4.74022 4.47924 4.47924ZM2.89701 6.49824C3.7544 6.77277 4.73492 7.00429 5.80482 7.18766C5.50688 8.45235 5.33151 9.81326 5.28966 11.2188H1.42157C1.53144 9.53203 2.03804 7.92219 2.89701 6.49824ZM2.8209 17.2081C2.00829 15.8162 1.52814 14.2528 1.42153 12.6168H5.29231C5.33803 13.9822 5.5099 15.3045 5.79779 16.536C4.70591 16.713 3.70077 16.9387 2.8209 17.2081ZM4.47924 19.3564C4.18223 19.0594 3.9056 18.7474 3.64914 18.4228C4.40904 18.2121 5.25856 18.0336 6.17302 17.8905C6.43046 18.6867 6.7407 19.4317 7.10075 20.1094C7.43454 20.7375 7.80153 21.2895 8.19523 21.7623C6.81677 21.2417 5.55241 20.4295 4.47924 19.3564ZM11.2188 22.2582C10.157 21.9607 9.15252 20.9911 8.33541 19.4533C8.04961 18.9156 7.79859 18.3288 7.58356 17.7035C8.73484 17.5768 9.95991 17.5019 11.2188 17.4843V22.2582ZM11.2188 16.0861C9.82271 16.1052 8.46199 16.1928 7.18766 16.3425C6.90657 15.1805 6.73744 13.9227 6.69102 12.6169H11.2188V16.0861H11.2188ZM11.2188 11.2188H6.68837C6.73078 9.87644 6.90261 8.58359 7.19246 7.39199C8.45863 7.55027 9.81652 7.64655 11.2188 7.67411V11.2188ZM11.2188 6.27586C9.95502 6.25039 8.73265 6.16799 7.58952 6.03354C7.80325 5.41475 8.05231 4.83394 8.33541 4.30103C9.15248 2.76326 10.157 1.79363 11.2188 1.4962V6.27586ZM20.9827 6.5725C21.8148 7.9781 22.3061 9.56122 22.4142 11.2188H18.5461C18.5047 9.82942 18.3327 8.48377 18.041 7.23156C19.1179 7.05764 20.1106 6.83637 20.9827 6.5725ZM19.3564 4.47924C19.637 4.75992 19.8992 5.05414 20.1438 5.35958C19.3955 5.56391 18.5623 5.73732 17.6669 5.87689C17.4086 5.07579 17.097 4.32641 16.7349 3.64504C16.4286 3.06861 16.0944 2.5561 15.7373 2.1102C17.0781 2.63193 18.3084 3.43127 19.3564 4.47924ZM12.6169 12.6169H17.1447C17.0979 13.9329 16.9265 15.2002 16.6414 16.3697C15.3754 16.2123 14.0182 16.1169 12.6169 16.0901V12.6169ZM12.6169 11.2188V7.67876C14.0137 7.66042 15.3755 7.5735 16.6511 7.42439C16.9362 8.607 17.1053 9.88859 17.1473 11.2188H12.6169ZM12.6168 1.4962H12.6168C13.6786 1.79363 14.6831 2.76326 15.5002 4.30103C15.7878 4.84232 16.0403 5.43313 16.2563 6.06301C15.1034 6.18927 13.877 6.26361 12.6168 6.2806V1.4962ZM12.6169 22.2582V17.4883C13.8794 17.5131 15.1009 17.5948 16.2436 17.7284C16.0304 18.3444 15.7822 18.9227 15.5003 19.4533C14.6831 20.9911 13.6787 21.9607 12.6169 22.2582ZM19.3564 19.3564C18.2833 20.4295 17.0189 21.2417 15.6404 21.7622C16.0341 21.2894 16.4011 20.7375 16.7349 20.1094C17.0896 19.4418 17.3958 18.7087 17.6511 17.9257C18.5572 18.0753 19.3956 18.2603 20.1424 18.4778C19.8983 18.7826 19.6365 19.0762 19.3564 19.3564ZM20.9775 17.272C20.11 16.9931 19.1154 16.7584 18.0294 16.5732C18.3225 15.3311 18.4972 13.996 18.5434 12.6169H22.4142C22.3059 14.2778 21.8128 15.8642 20.9775 17.272Z" fill="#1386FE"/>
</svg>
